<?xml version="1.0" encoding="UTF-8" standalone="no"?>
<!DOCTYPE svg PUBLIC "-//W3C//DTD SVG 1.1//EN" "http://www.w3.org/Graphics/SVG/1.1/DTD/svg11.dtd">
<svg width="100%" height="100%" viewBox="0 0 200 400" version="1.1" xmlns="http://www.w3.org/2000/svg" xmlns:xlink="http://www.w3.org/1999/xlink" xml:space="preserve" xmlns:serif="http://www.serif.com/" style="fill-rule:evenodd;clip-rule:evenodd;stroke-linejoin:round;stroke-miterlimit:2;">
    <g transform="matrix(0.751137,0,0,0.87913,-55.9672,-98.1938)">
        <path d="M200.624,228.115L181.887,228.115C181.887,228.115 164.293,303.9 160.293,332.023C157.247,353.431 156.863,375.25 157.886,396.849C158.996,420.304 165.276,456.018 166.957,472.75C167.837,481.505 193.244,474.086 193.244,474.086C193.244,474.086 183.226,431.656 181.693,410.006C179.991,385.948 180.257,356.352 183.028,329.735C186.183,299.42 200.624,228.115 200.624,228.115Z" style="fill:rgb(115,210,156);"/>
    </g>
    <g transform="matrix(0.952648,0,0,0.88597,-129.112,-119.617)">
        <path d="M208.283,479.202L228.739,491.507C228.739,491.507 234.506,519.67 239.29,546.848C240.392,553.107 256.675,586.659 256.675,586.659L185.152,585.855C185.152,585.855 192.459,565.359 200.579,546.016C207.369,529.843 208.342,513.104 208.643,505.304C208.978,496.609 208.283,479.202 208.283,479.202Z" style="fill:rgb(115,210,156);"/>
    </g>
    <g transform="matrix(0.70902,0,0,0.844891,-35.5496,-93.1676)">
        <path d="M136.415,151.239C131.263,131.727 132.139,114.328 139.558,111.209C149.435,107.056 164.771,130.927 179.298,155.851L181.15,159.17C187.537,136.599 199.84,118.534 208.626,120.045C217.2,121.519 217.932,140.943 216.635,163.606C231.333,149.366 249.857,141.629 256.989,147.355C264.888,153.697 253.955,172.765 241.321,191.924C261.177,186.737 281.319,189.549 284.51,198.404C287.315,206.187 275.593,214.83 260.307,223.213L260.486,223.256C291.204,230.593 318.284,247.579 315.63,257.325C313.519,265.077 293.57,264.367 269.765,261.295C290.126,282.592 303.502,306.233 297.95,311.793C292.805,316.945 274.035,303.804 253.131,286.96C258.756,306.341 258.303,323.756 250.963,327.054C241.19,331.447 225.277,307.956 210.147,283.394C207.29,278.755 205.644,275.566 204.318,271.967C199.057,297.119 182.539,319.282 171.169,317.169C160.489,315.184 160.63,292.858 162.614,268.944C144.367,281.134 124.31,286.72 118.225,280.577C112.49,274.787 122.072,261.411 135.447,246.681C112.091,249.884 89.49,244.769 86.783,235.085C84.413,226.607 98.502,218.716 116.77,211.457C91.025,202.556 70.667,187.864 73.212,179.343C75.512,171.645 95.437,172.841 119.16,176.492C99.324,154.704 86.527,130.745 92.213,125.322C97.482,120.297 115.927,133.89 136.415,151.239Z" style="fill:rgb(255,252,232);"/>
    </g>
    <g id="center" transform="matrix(0.230952,-0.247599,0.160524,0.212617,34.006,69.7733)">
        <ellipse cx="129.043" cy="227.234" rx="34.894" ry="85.106" style="fill:rgb(235,210,156);"/>
    </g>
</svg>
