<?xml version="1.0" encoding="UTF-8" standalone="no"?>
<!DOCTYPE svg PUBLIC "-//W3C//DTD SVG 1.1//EN" "http://www.w3.org/Graphics/SVG/1.1/DTD/svg11.dtd">
<svg width="100%" height="100%" viewBox="0 0 600 200" version="1.1" xmlns="http://www.w3.org/2000/svg" xmlns:xlink="http://www.w3.org/1999/xlink" xml:space="preserve" xmlns:serif="http://www.serif.com/" style="fill-rule:evenodd;clip-rule:evenodd;stroke-linejoin:round;stroke-miterlimit:2;">
    <g id="_1" serif:id="1" transform="matrix(1.57275,0,0,1.21862,-4.60616,-43.0835)">
        <g transform="matrix(1,0,0,0.919847,52.2827,16.3957)">
            <path d="M16.233,102.381L104.565,200.334L-1.483,199.93L16.233,102.381Z" style="fill:rgb(202,202,202);"/>
        </g>
        <g transform="matrix(1,0,0,2.4375,-18.9108,-69.4163)">
            <path d="M87.436,73.84L100.414,110.197L21.063,110.197L87.436,73.84Z" style="fill:rgb(217,217,217);"/>
        </g>
    </g>
    <g id="_3" serif:id="3" transform="matrix(1.57275,0,0,1.21862,-23.2677,-42.6316)">
        <path d="M329.233,132.816L396.312,199.56L267.717,201.784L329.233,132.816Z" style="fill:rgb(202,202,202);"/>
        <g transform="matrix(1,0,0,1,88.2503,100.487)">
            <path d="M240.947,32.329L198.305,99.073L145.651,99.073L240.947,32.329Z" style="fill:rgb(217,217,217);"/>
        </g>
        <path d="M320.112,167.529L328.27,200.901L279.695,199.417L320.112,167.529Z" style="fill:rgb(217,217,217);"/>
    </g>
    <g id="_2" serif:id="2" transform="matrix(1.57275,0,0,1.21862,-4.60616,-43.0835)">
        <path d="M182.433,119.096L257.335,199.56L150.915,199.56L182.433,119.096Z" style="fill:rgb(202,202,202);"/>
        <g transform="matrix(1,0,0,1,-121.251,100.116)">
            <path d="M303.68,18.98L289.521,99.815L184.585,99.444L303.68,18.98Z" style="fill:rgb(217,217,217);"/>
        </g>
        <g transform="matrix(1,0,0,1,-144.241,118.285)">
            <path d="M354.226,44.565L336.242,82.016L285.072,80.904L354.226,44.565Z" style="fill:rgb(217,217,217);"/>
        </g>
    </g>
    <g id="_1.2" serif:id="1.2" transform="matrix(1.57275,0,0,1.21862,-4.60616,-43.0835)">
        <g transform="matrix(1,0,0,0.826087,-71.5643,124.907)">
            <path d="M160.483,33.812L184.214,90.818L130.078,90.818L160.483,33.812Z" style="fill:rgb(217,217,217);"/>
        </g>
        <g transform="matrix(1,0,0,1,-7.78678,31.5179)">
            <path d="M96.749,121.319L170.124,168.413L118.954,169.154L96.749,121.319Z" style="fill:rgb(202,202,202);"/>
        </g>
    </g>
</svg>
