<?xml version="1.0" encoding="UTF-8" standalone="no"?>
<!DOCTYPE svg PUBLIC "-//W3C//DTD SVG 1.1//EN" "http://www.w3.org/Graphics/SVG/1.1/DTD/svg11.dtd">
<svg width="100%" height="100%" viewBox="0 0 400 200" version="1.1" xmlns="http://www.w3.org/2000/svg" xmlns:xlink="http://www.w3.org/1999/xlink" xml:space="preserve" xmlns:serif="http://www.serif.com/" style="fill-rule:evenodd;clip-rule:evenodd;stroke-linejoin:round;stroke-miterlimit:2;">
    <g id="_2" serif:id="2" transform="matrix(0.989487,0,0,1.08077,-16.9156,-15.874)">
        <g transform="matrix(1.44806,0,0,1.27149,-71.0012,-38.765)">
            <path d="M154.856,47.863L236.252,189.563L123.158,187.339L154.856,47.863Z" style="fill:rgb(170,134,52);"/>
        </g>
        <g transform="matrix(1.36059,0,0,1.26162,-93.3972,-52.8025)">
            <path d="M181.215,59.356L161.277,200.984L81.629,199.946L181.215,59.356Z" style="fill:rgb(197,155,58);"/>
        </g>
    </g>
    <g id="_1" serif:id="1" transform="matrix(1.04404,0,0,1.08077,-21.868,-16.8758)">
        <g transform="matrix(1.16193,0,0,0.851923,-65.0745,29.8248)">
            <path d="M312.194,38.648L401.871,201.414L268.848,200.005L312.194,38.648Z" style="fill:rgb(170,134,52);"/>
        </g>
        <g transform="matrix(2.41892,0,0,0.820439,-329.336,37.933)">
            <path d="M259.21,30.248L242.003,198.783L215.391,197.828L259.21,30.248Z" style="fill:rgb(197,155,58);"/>
        </g>
    </g>
</svg>
