<?xml version="1.0" encoding="UTF-8" standalone="no"?>
<!DOCTYPE svg PUBLIC "-//W3C//DTD SVG 1.1//EN" "http://www.w3.org/Graphics/SVG/1.1/DTD/svg11.dtd">
<svg width="100%" height="100%" viewBox="0 0 100 100" version="1.1" xmlns="http://www.w3.org/2000/svg" xmlns:xlink="http://www.w3.org/1999/xlink" xml:space="preserve" xmlns:serif="http://www.serif.com/" style="fill-rule:evenodd;clip-rule:evenodd;stroke-linejoin:round;stroke-miterlimit:2;">
    <g transform="matrix(0.811516,0,0,1.15579,-51.011,-54.2269)">
        <path d="M88.244,60.89L94.129,49.264C94.129,49.264 109.673,48.349 119.319,53.963C120.824,54.838 117.807,66.491 117.807,66.491L124.034,55.467C124.034,55.467 144.071,60.082 144.732,66.938C145.022,69.95 142.576,75.458 142.576,75.458L151.061,68.082C151.061,68.082 167.624,77.185 164.987,83.921C161.916,91.763 162.222,91.636 162.222,91.636C162.222,91.636 168.393,91.556 171.167,88.565C175.081,84.345 189.356,112.48 184.351,117.538C180.774,121.153 164.081,124.591 163.707,123.38C161.199,115.247 156.438,111.696 156.438,111.696C156.438,111.696 158.866,122.985 157.017,123.142C155.634,123.26 143.232,123.089 142.953,119.366C142.508,113.414 137.562,104.218 137.562,104.218L135.706,117.449C135.706,117.449 119.878,111.696 119.372,109.602C116.941,99.536 112.652,95.208 112.652,95.208L109.388,108.886C109.388,108.886 93.684,110.315 93.349,108.234C92.766,104.615 86.444,87.533 86.444,87.533L79.294,107.023C79.294,107.023 59.748,108.408 61.818,75.765C62.537,64.419 64.901,54.405 67.423,51.834C72.814,46.338 85.183,47.605 86.912,48.917C89.091,50.568 88.244,60.89 88.244,60.89Z" style="fill:rgb(73,108,55);"/>
    </g>
    <g transform="matrix(0.651655,0,0,0.779848,-0.408394,-3.46567)">
        <path d="M98.402,60.946C87.474,55.12 76.449,49.703 66.366,46.412C57.965,43.671 49.377,40.36 40.95,38.877C32.682,37.423 22.693,36.676 15.801,37.516C10.036,38.218 -0.403,42.388 -0.403,43.916L-0.403,49.453C-0.403,50.981 15.153,45.397 22.882,44.96C30.591,44.523 38.435,45.147 45.97,46.829C55.457,48.947 70.333,53.67 79.801,57.669C87.931,61.103 93.086,60.981 103.822,69.894C123.215,85.994 137.459,95.487 137.459,94.596C137.459,94.596 112.928,68.691 98.402,60.946Z" style="fill:rgb(67,101,50);"/>
    </g>
</svg>
