<?xml version="1.0" encoding="UTF-8" standalone="no"?>
<!DOCTYPE svg PUBLIC "-//W3C//DTD SVG 1.1//EN" "http://www.w3.org/Graphics/SVG/1.1/DTD/svg11.dtd">
<svg width="100%" height="100%" viewBox="0 0 100 100" version="1.1" xmlns="http://www.w3.org/2000/svg" xmlns:xlink="http://www.w3.org/1999/xlink" xml:space="preserve" xmlns:serif="http://www.serif.com/" style="fill-rule:evenodd;clip-rule:evenodd;stroke-linejoin:round;stroke-miterlimit:2;">
    <g transform="matrix(1.30082,0,0,1.24703,-30.0408,-29.3155)">
        <path d="M71.483,25.436C71.483,25.436 76.732,24.471 82.206,25.292C84.085,25.574 83.833,32.288 85.792,32.808C87.411,33.237 87.373,26.407 87.373,26.407C87.373,26.407 96.608,29.892 98.142,31.65C102.573,36.728 102.272,49.558 102.272,56.346C102.272,63.494 94.104,69.139 94.104,69.139C94.104,69.139 93.477,55.609 91.344,56.212C90.033,56.582 90.661,69.24 87.886,71.474C86.715,72.417 81.574,72.632 81.574,72.632C81.574,72.632 78.99,57.312 78.089,59.699C76.259,64.544 75.138,75.001 73.613,75.252C71.153,75.657 66.04,76.648 66.04,76.648C66.04,76.648 64.252,61.685 63.405,63.044C60.926,67.024 59.171,77.384 57.581,77.612C53.833,78.151 48.026,79.429 48.026,79.429C48.026,79.429 51,70.693 49.041,67.271C48.024,65.494 43.295,79.871 42.713,79.855C30.852,79.535 22.573,77.375 23.114,70.497C23.56,64.839 26.483,54.009 32.568,46.343C34.596,43.788 40.932,51.313 42.124,49.773C43.317,48.234 38.556,39.957 38.556,39.957C38.556,39.957 44.53,33.944 47.702,33.997C49.397,34.025 55.907,40.634 57.493,39.906C58.782,39.315 54.187,30.887 54.187,30.887C54.187,30.887 59.766,28.298 63.65,26.972C65.05,26.495 70.8,31.858 71.715,32.945C75.164,37.041 71.483,25.436 71.483,25.436Z" style="fill:rgb(73,108,55);"/>
    </g>
    <g transform="matrix(1.11689,0,0,1.20601,-7.54661,-8.39959)">
        <path d="M96.11,27.459C96.11,27.459 84.628,25.342 78.863,25.721C72.589,26.134 65.137,28.011 58.468,29.938C50.765,32.165 39.085,34.853 32.646,39.08C27.885,42.205 12.683,55.783 12.683,55.783C12.683,55.783 32.016,42.944 39.324,39.457C44.683,36.9 52.334,35.007 58.077,33.5C60.17,32.951 74.699,29.86 81.295,29.625C86.392,29.443 96.11,33.451 96.11,33.451L96.11,27.459Z" style="fill:rgb(67,101,50);"/>
    </g>
</svg>
