<svg width="194" height="174" viewBox="0 0 194 174" fill="none" xmlns="http://www.w3.org/2000/svg">
<g clip-path="url(#clip0_48_272)">
<path d="M31.1131 83.5938L31.1838 83.5579L31.221 83.4878C32.4685 81.1309 33.5497 79.8498 34.501 79.3551C34.966 79.1133 35.3953 79.0618 35.806 79.1593C36.223 79.2584 36.6446 79.5168 37.0763 79.9377C37.9447 80.7842 38.7973 82.231 39.6817 84.1059C40.5633 85.9747 41.4633 88.2388 42.4365 90.6994L42.5361 90.9513C44.4556 95.8056 46.6595 101.379 49.5395 106.067C52.4189 110.754 56.0009 114.601 60.6975 115.94C57.371 129.037 53.761 136.923 49.914 141.429C47.9822 143.692 45.994 145.098 43.9544 145.888C41.9145 146.677 39.808 146.856 37.6311 146.64C34.0167 146.282 30.2414 144.844 26.2816 143.336C25.4517 143.02 24.6136 142.701 23.7672 142.389C18.9264 140.599 13.835 139.024 8.55062 139.508C5.8465 138.08 4.39328 136.51 3.70465 134.837C3.00898 133.148 3.07627 131.313 3.49134 129.337C3.77885 127.968 4.22672 126.556 4.69166 125.09C4.90093 124.43 5.11365 123.759 5.31677 123.077C5.967 120.891 6.5102 118.608 6.47242 116.269C6.4269 113.452 5.83106 110.432 5.13565 107.446C4.94004 106.606 4.73675 105.769 4.53528 104.94C4.01813 102.812 3.51302 100.733 3.18064 98.7735C2.71863 96.0496 2.60018 93.6034 3.23036 91.6273C3.85375 89.6725 5.21731 88.1541 7.78987 87.2863C10.678 86.312 13.5488 86.3221 16.6249 86.3329C17.2488 86.3351 17.8812 86.3373 18.524 86.3314C22.3237 86.2962 26.4295 85.969 31.1131 83.5938Z" fill="#866CB1" stroke="black" stroke-width="0.5"/>
<path d="M90.1985 138.264L90.3279 138.308L90.3601 138.441C92.4741 147.146 96.3852 153.031 101.14 156.796C105.895 160.562 111.514 162.221 117.064 162.438C122.617 162.655 128.095 161.429 132.554 159.436C137.022 157.439 140.433 154.688 141.896 151.884L141.96 151.761L142.099 151.751C151.046 151.098 156.611 149.665 159.827 147.727C161.43 146.761 162.439 145.676 163 144.51C163.56 143.344 163.684 142.075 163.478 140.721C163.063 137.997 161.323 134.97 159.2 131.867C158.358 130.637 157.454 129.393 156.556 128.156C155.206 126.298 153.868 124.456 152.77 122.703C151.841 121.22 151.283 119.496 150.87 117.71C150.611 116.587 150.406 115.424 150.203 114.278C150.085 113.609 149.968 112.945 149.842 112.298C149.148 108.749 148.166 105.652 145.246 104.139C142.552 102.742 139.204 102.161 135.362 101.494C134.715 101.382 134.053 101.267 133.379 101.146C128.733 100.309 123.506 99.1563 118.055 96.2501C113.427 96.2675 107.399 98.2125 101.436 101.316C95.4511 104.43 89.562 108.695 85.2581 113.296C80.9449 117.907 78.2671 122.808 78.6009 127.2C78.9319 131.556 82.242 135.529 90.1985 138.264Z" fill="#866CB1" stroke="black" stroke-width="0.5"/>
<path d="M90.6787 122.799C96.7154 128.746 100.994 135.931 103.242 140.908C101.368 154.098 98.1008 161.443 93.9943 165.242C89.8992 169.031 84.9188 169.338 79.4839 168.313C76.7654 167.8 73.9459 166.956 71.0798 166.057C70.6297 165.916 70.1783 165.773 69.7262 165.63C67.3035 164.865 64.8553 164.091 62.4282 163.48C56.6838 162.034 50.9935 161.482 45.917 164.132C41.5913 164.948 38.1952 164.191 35.5989 162.439C32.9901 160.678 31.1617 157.895 30.0191 154.623C27.7311 148.072 28.22 139.638 30.6118 133.83C32.2243 129.914 34.2679 125.897 36.9794 122.679C39.7916 119.34 44.0927 118.441 49.428 117.509C49.7051 117.46 49.9849 117.412 50.2671 117.363C55.3811 116.476 61.3271 115.445 67.5625 112.121C76.8347 112.142 84.6288 116.839 90.6787 122.799Z" fill="#866CB1" stroke="black" stroke-width="0.5"/>
<path d="M152.716 139.771L152.669 139.75H152.617C150.311 139.75 148.571 139.201 147.244 138.249C145.915 137.296 144.976 135.923 144.302 134.237C142.946 130.85 142.678 126.266 142.406 121.466L142.401 121.376C142.132 116.627 141.852 111.684 140.461 107.613C139.078 103.566 136.588 100.354 131.92 99.0345C135.246 85.9369 138.856 78.0511 142.703 73.545C144.635 71.2823 146.623 69.876 148.663 69.0866C150.703 68.297 152.809 68.1188 154.986 68.3346C158.601 68.6929 162.376 70.1303 166.336 71.638C167.166 71.954 168.004 72.2731 168.85 72.586C173.701 74.3791 178.803 75.9572 184.099 75.4637C187.465 76.2852 189.56 77.7804 190.823 79.7135C192.095 81.6613 192.544 84.0863 192.549 86.7958C192.555 89.5056 192.117 92.4712 191.64 95.4865C191.601 95.7332 191.562 95.9803 191.522 96.2276C191.083 98.9943 190.639 101.786 190.514 104.415C190.432 106.138 190.521 107.911 190.642 109.682C190.67 110.095 190.7 110.508 190.73 110.921C190.828 112.28 190.926 113.632 190.961 114.966C191.054 118.441 190.722 121.732 188.905 124.537C185.181 130.289 179.685 135.643 173.342 138.783C167.004 141.922 159.829 142.846 152.716 139.771Z" fill="#866CB1" stroke="black" stroke-width="0.5"/>
<path d="M53.5129 105.101C55.2037 110.284 57.0522 115.949 63.6976 117.834C61.2866 127.322 58.5122 133.12 55.5335 136.493C52.5445 139.877 49.3434 140.827 46.0487 140.605C42.8189 140.387 39.4961 139.043 36.1732 137.699C36.0803 137.662 35.9874 137.624 35.8944 137.586C32.5424 136.232 29.1873 134.906 26.0133 134.874C23.1974 131.436 23.6056 127.921 24.491 124.386C24.6378 123.801 24.7987 123.211 24.9598 122.621C25.2853 121.428 25.6114 120.233 25.8224 119.063C26.1398 117.303 26.2079 115.552 25.6312 113.847C25.2905 112.84 24.7537 111.906 24.2327 111C24.1521 110.86 24.0719 110.72 23.9928 110.581C23.3965 109.533 22.8613 108.505 22.6531 107.373C22.2457 105.157 22.6863 103.635 23.6966 102.489C24.7222 101.326 26.3618 100.518 28.4242 99.8064C29.7008 99.3658 31.1138 98.9695 32.62 98.5472C33.5502 98.2863 34.516 98.0155 35.5071 97.7181C38.0723 96.9484 40.7785 96.008 43.3769 94.621C46.6741 94.6358 48.7241 95.8277 50.1732 97.6532C51.6479 99.5108 52.5109 102.035 53.391 104.728C53.4316 104.852 53.4722 104.976 53.5129 105.101Z" fill="#866CB1" stroke="black" stroke-width="0.5"/>
<path d="M120.655 130.12C119.061 128.556 116.826 127.291 113.347 126.658C115.869 120.428 118.764 116.616 121.871 114.391C125.022 112.136 128.417 111.492 131.927 111.641C135.347 111.787 138.862 112.686 142.357 113.58C142.458 113.606 142.558 113.631 142.659 113.657C146.211 114.565 149.743 115.446 153.076 115.461C154.441 116.511 155.063 117.553 155.268 118.573C155.478 119.618 155.257 120.679 154.87 121.767C154.677 122.311 154.445 122.854 154.208 123.402C154.194 123.435 154.18 123.467 154.166 123.5C153.945 124.013 153.721 124.531 153.531 125.045C153.127 126.136 152.857 127.251 153.073 128.354C153.209 129.046 153.542 129.661 153.943 130.226C154.265 130.678 154.64 131.112 155.003 131.531C155.091 131.632 155.178 131.733 155.264 131.833C156.162 132.883 156.871 133.848 156.733 135.031C156.615 136.038 155.884 136.793 154.593 137.411C153.303 138.028 151.514 138.477 149.401 138.895C148.368 139.099 147.261 139.296 146.103 139.501C142.559 140.13 138.543 140.842 134.76 142.121C131.233 142.115 129.049 141.308 127.522 140.091C125.981 138.863 125.08 137.198 124.153 135.405C124.112 135.327 124.071 135.247 124.03 135.168C123.147 133.457 122.216 131.651 120.655 130.12Z" fill="#866CB1" stroke="black" stroke-width="0.5"/>
<path d="M134.737 117.016L134.707 117.009H134.677C129.875 117.009 127.411 115.721 126.058 113.815C124.685 111.882 124.41 109.262 124.128 106.459L124.121 106.392C123.845 103.64 123.552 100.732 122.098 98.3339C120.652 95.948 118.081 94.1004 113.363 93.3321C116.768 85.8276 120.456 81.3049 124.385 78.711C128.362 76.0859 132.613 75.4178 137.134 75.6704C140.882 75.8797 144.795 76.7196 148.883 77.5968C149.738 77.7805 150.601 77.9657 151.472 78.1471C156.486 79.1917 161.738 80.1056 167.183 79.8168C170.635 80.2896 172.795 81.146 174.098 82.236C175.392 83.3174 175.867 84.649 175.903 86.1433C176.027 91.1783 175.212 96.9887 173.233 102.075C171.253 107.165 168.119 111.5 163.624 113.637C155.625 117.441 145.117 119.546 134.737 117.016Z" fill="#866CB1" stroke="black" stroke-width="0.5"/>
<path d="M32.4031 65.0642L32.4424 65.0776H32.4839C33.7403 65.0776 34.6785 65.3139 35.3873 65.7152C36.0938 66.1151 36.5902 66.6889 36.9483 67.3955C37.6741 68.8277 37.8211 70.7752 37.971 72.8636L37.9748 72.9176C38.1216 74.9626 38.2768 77.1261 39.0507 78.914C39.8152 80.6801 41.1799 82.0749 43.678 82.6714C41.8717 88.2359 39.9198 91.5767 37.8551 93.486C35.7725 95.4119 33.5559 95.8987 31.1908 95.7136C29.2181 95.5592 27.1582 94.9401 24.9869 94.2875C24.5311 94.1505 24.0704 94.012 23.6045 93.8761C20.9458 93.1001 18.1396 92.4139 15.2243 92.6263C13.6063 92.3131 12.5454 91.7771 11.8624 91.1033C11.1782 90.4285 10.8502 89.5928 10.7413 88.6383C10.2841 84.6315 10.6089 79.994 11.9383 75.896C13.2683 71.796 15.5934 68.2649 19.1147 66.419C23.027 64.3682 27.7422 63.473 32.4031 65.0642Z" fill="#866CB1" stroke="black" stroke-width="0.5"/>
<path d="M163 103.871C177.5 146.371 107 115.371 94.5 139.371C56.6685 139.371 35.5 119.371 26 103.871C36 85.8708 56.6685 68.3708 94.5 68.3708C132.332 68.3708 163 84.2647 163 103.871Z" fill="#866CB1"/>
<rect x="28.9489" y="67.621" width="23.23" height="30.2052" rx="9.75" transform="rotate(-65.2402 28.9489 67.621)" fill="#D9D9D9" stroke="black" stroke-width="0.5"/>
<rect x="32.3052" y="49.8887" width="25.1573" height="32.3604" rx="9.75" transform="rotate(-56.6571 32.3052 49.8887)" fill="#D9D9D9" stroke="black" stroke-width="0.5"/>
<rect x="48.7861" y="24.9151" width="27.7467" height="38.4075" rx="9.75" transform="rotate(-14.5721 48.7861 24.9151)" fill="#D9D9D9" stroke="black" stroke-width="0.5"/>
<rect x="-0.340918" y="-0.0936761" width="23.23" height="30.2052" rx="9.75" transform="matrix(-0.494483 -0.869187 -0.869187 0.494483 155.87 63.2063)" fill="#D9D9D9" stroke="black" stroke-width="0.5"/>
<rect x="-0.35108" y="-0.0417469" width="25.1573" height="32.3604" rx="9.75" transform="matrix(-0.618666 -0.785654 -0.785654 0.618666 151.019 45.8234)" fill="#D9D9D9" stroke="black" stroke-width="0.5"/>
<rect x="-0.288535" y="0.204322" width="27.7467" height="38.4075" rx="9.75" transform="matrix(-0.985714 -0.168425 -0.168425 0.985714 132.475 22.341)" fill="#D9D9D9" stroke="black" stroke-width="0.5"/>
<path d="M121.965 54.1475L136.637 75.1292H52.0502L65.8337 51.2542L65.8411 51.2414L65.8469 51.2279L73.7943 32.7279L73.7976 32.7202L73.8004 32.7124L83.2678 5.8792H106.424L113.375 32.6919L113.379 32.7073L113.385 32.7221L121.938 54.0971L121.948 54.1238L121.965 54.1475Z" fill="#A4A3A3" stroke="black" stroke-width="0.5"/>
<path d="M155.49 116.125L34.5335 96.8099L42.3059 89.2987L42.4399 89.1692L42.3541 89.0038L38.5379 81.6411L38.4021 71.2937L159.312 90.6015L150.568 97.9437L150.397 98.0871L150.52 98.2731L155.352 105.581L155.49 116.125Z" fill="#986932" stroke="black" stroke-width="0.5"/>
<path d="M22.25 72.2483V61.25H166.518L158.808 72.1998L158.634 72.4471L158.91 72.5716L166.75 76.1145V93.75H22.5252L31.4101 82.8139L31.5445 82.6485L31.4025 82.4897L22.25 72.2483Z" fill="#986932" stroke="black" stroke-width="0.5"/>
<path d="M83.6172 5.41105L106.109 5.41105C106.518 5.45831 106.756 5.61904 106.904 5.82857C107.059 6.04726 107.129 6.33655 107.164 6.6593C107.181 6.81934 107.19 6.98275 107.198 7.1454C107.199 7.15908 107.199 7.17277 107.2 7.18646C107.207 7.33376 107.214 7.48091 107.228 7.61768C107.242 7.7669 107.265 7.91196 107.308 8.03966C107.35 8.16766 107.415 8.28774 107.521 8.37606L107.531 8.38438L107.542 8.39087C108.222 8.78447 108.468 9.61532 108.53 10.5126C108.561 10.9557 108.545 11.4015 108.522 11.7951C108.515 11.9229 108.506 12.0468 108.498 12.1636C108.482 12.4003 108.467 12.608 108.467 12.761V12.7839L108.474 12.8058C108.524 12.9666 108.58 13.1434 108.64 13.3326C108.839 13.9589 109.081 14.7214 109.298 15.494C109.58 16.5025 109.815 17.513 109.854 18.2481C109.873 18.6194 109.841 18.8961 109.759 19.0654C109.72 19.1465 109.673 19.1957 109.621 19.2234C109.57 19.2511 109.498 19.2656 109.394 19.2501C109.177 19.2177 108.858 19.0605 108.41 18.7103C107.971 18.3671 107.423 17.8515 106.748 17.1257C106.244 15.7333 105.65 14.9394 104.982 14.5039C104.308 14.0647 103.583 14.0058 102.865 14.0287C102.645 14.0358 102.425 14.05 102.207 14.0642C100.989 14.1431 99.8132 14.2194 98.7282 13.0252L98.4953 12.7688L98.4677 13.1141C98.3689 14.3494 98.2465 15.3184 98.1047 16.0622C97.9624 16.8082 97.8024 17.3182 97.6327 17.6414C97.4611 17.9683 97.3004 18.0676 97.1704 18.076C97.0302 18.0851 96.8496 17.9963 96.6251 17.7665C96.1819 17.3127 95.6931 16.4402 95.1857 15.4367C95.0075 15.0843 94.8274 14.7164 94.6472 14.3485C94.3203 13.6809 93.9932 13.013 93.6771 12.4359C93.2934 11.7353 92.6952 11.3103 92.0333 11.1992C91.3719 11.0882 90.6638 11.2934 90.0645 11.8195C89.7882 12.0622 89.513 12.3233 89.2468 12.5759C89.0814 12.7328 88.9195 12.8863 88.763 13.0302C88.3471 13.4124 87.9634 13.7311 87.6127 13.911C87.2646 14.0895 86.9795 14.1167 86.7311 13.9702C86.4689 13.8155 86.2052 13.4451 85.9697 12.715L85.9362 12.611H85.827C84.9811 12.611 84.0995 13.0039 83.2647 13.5454C82.4271 14.0886 81.6186 14.7936 80.9166 15.442C80.6946 15.6471 80.4842 15.8455 80.2871 16.0315C79.8554 16.4387 79.4873 16.7859 79.1997 17.0116C79.0963 17.0928 79.0075 17.1547 78.9335 17.1967C78.8566 17.2404 78.8087 17.2548 78.7841 17.2567C78.7775 17.2416 78.7672 17.2046 78.7672 17.1292C78.7672 16.8706 78.8265 16.4838 78.9373 15.9978C79.0475 15.5146 79.2064 14.9424 79.401 14.3171C79.7902 13.0665 80.3199 11.6093 80.881 10.2359C81.4425 8.86181 82.0335 7.57623 82.5448 6.66739C82.8011 6.21169 83.0334 5.85805 83.2281 5.63565C83.3261 5.52362 83.4072 5.45364 83.4699 5.41834C83.5004 5.40112 83.5213 5.3952 83.5335 5.39367C83.5439 5.39237 83.5478 5.3941 83.5501 5.39522L83.5817 5.41105H83.6172Z" fill="#C26161" stroke="black" stroke-width="0.3"/>
<path d="M53.0885 67.565L46.1935 89.685H38.4935L31.9485 67.565H38.2135C38.5868 68.7317 38.9835 70.0617 39.4035 71.555C39.8235 73.0483 40.2318 74.5767 40.6285 76.14C41.0485 77.68 41.4101 79.1267 41.7135 80.48C42.0401 81.81 42.2851 82.9183 42.4485 83.805H42.5885C42.7518 82.9183 42.9851 81.81 43.2885 80.48C43.6151 79.1267 43.9768 77.68 44.3735 76.14C44.7935 74.6 45.2135 73.0833 45.6335 71.59C46.0535 70.0967 46.4501 68.755 46.8235 67.565H53.0885ZM55.0815 81.285C55.0815 78.1583 55.7465 75.9067 57.0765 74.53C58.4065 73.1533 60.6582 72.465 63.8315 72.465C65.9549 72.465 67.6582 72.7683 68.9415 73.375C70.2249 73.9817 71.1465 74.9383 71.7065 76.245C72.2899 77.5283 72.5815 79.2083 72.5815 81.285C72.5815 83.3383 72.2899 85.0067 71.7065 86.29C71.1465 87.5733 70.2249 88.5183 68.9415 89.125C67.6582 89.7083 65.9549 90 63.8315 90C60.6582 90 58.4065 89.3233 57.0765 87.97C55.7465 86.5933 55.0815 84.365 55.0815 81.285ZM63.8315 85.205C65.1849 85.205 66.0949 84.9133 66.5615 84.33C67.0515 83.7233 67.2965 82.6733 67.2965 81.18C67.2965 79.7567 67.0515 78.7417 66.5615 78.135C66.0949 77.505 65.1849 77.19 63.8315 77.19C62.5249 77.19 61.6149 77.505 61.1015 78.135C60.6115 78.7417 60.3665 79.7567 60.3665 81.18C60.3665 82.6733 60.6115 83.7233 61.1015 84.33C61.6149 84.9133 62.5249 85.205 63.8315 85.205ZM81.1497 89.685H75.5497V66.13H81.1497V89.685ZM98.6243 84.75V89.3C98.0409 89.5333 97.1776 89.7083 96.0343 89.825C94.8909 89.9417 93.6776 90 92.3943 90C90.5509 90 89.0109 89.7433 87.7743 89.23C86.5609 88.7167 85.6509 87.83 85.0443 86.57C84.4609 85.31 84.1576 83.56 84.1343 81.32C84.1343 79.01 84.4493 77.2133 85.0793 75.93C85.7326 74.6467 86.6776 73.7483 87.9143 73.235C89.1509 72.7217 90.6326 72.465 92.3593 72.465C93.3859 72.465 94.4709 72.535 95.6143 72.675C96.7576 72.815 97.6909 73.0017 98.4143 73.235L98.4493 77.925L98.3443 77.995C97.6443 77.855 96.8976 77.75 96.1043 77.68C95.3109 77.61 94.5293 77.575 93.7593 77.575C92.1959 77.575 91.1109 77.8667 90.5043 78.45C89.8976 79.0333 89.5943 80.0133 89.5943 81.39C89.5943 82.44 89.7226 83.2217 89.9793 83.735C90.2359 84.2483 90.6676 84.5867 91.2743 84.75C91.8809 84.9133 92.7093 84.995 93.7593 84.995C94.5759 84.995 95.3576 84.96 96.1043 84.89C96.8509 84.82 97.6443 84.7383 98.4843 84.645L98.6243 84.75ZM108.241 72.465C110.481 72.465 112.289 72.6983 113.666 73.165C115.042 73.6317 116.046 74.495 116.676 75.755C117.329 76.9917 117.656 78.7883 117.656 81.145V89.685H112.581L112.406 88.075H112.301C111.857 88.6583 111.169 89.125 110.236 89.475C109.302 89.825 108.089 90 106.596 90C102.559 90 100.541 88.11 100.541 84.33C100.541 82.72 101.066 81.46 102.116 80.55C103.189 79.6167 104.869 79.15 107.156 79.15H112.336C112.172 78.17 111.752 77.5167 111.076 77.19C110.399 76.84 109.244 76.665 107.611 76.665C106.584 76.665 105.569 76.7467 104.566 76.91C103.586 77.05 102.722 77.2133 101.976 77.4L101.871 77.33L101.906 73.27C102.372 73.13 102.967 73.0017 103.691 72.885C104.414 72.745 105.172 72.64 105.966 72.57C106.782 72.5 107.541 72.465 108.241 72.465ZM108.031 85.87C109.477 85.87 110.562 85.695 111.286 85.345C112.009 84.9717 112.382 84.3883 112.406 83.595V82.72H108.451C107.424 82.72 106.701 82.8717 106.281 83.175C105.884 83.455 105.686 83.84 105.686 84.33C105.686 84.9133 105.896 85.3217 106.316 85.555C106.736 85.765 107.307 85.87 108.031 85.87ZM126.916 89.685H121.316V72.64H126.636L126.916 75.755H127.021C127.348 74.705 127.931 73.9 128.771 73.34C129.611 72.7567 130.778 72.465 132.271 72.465C134.301 72.465 135.795 73.0367 136.751 74.18C137.731 75.3233 138.221 77.3067 138.221 80.13V89.685H132.621L132.586 81.215C132.586 79.9083 132.388 78.975 131.991 78.415C131.595 77.855 130.848 77.575 129.751 77.575C128.725 77.575 128.001 77.8317 127.581 78.345C127.161 78.835 126.94 79.6867 126.916 80.9V89.685ZM140.838 81.285C140.838 78.1583 141.503 75.9067 142.833 74.53C144.163 73.1533 146.415 72.465 149.588 72.465C151.712 72.465 153.415 72.7683 154.698 73.375C155.982 73.9817 156.903 74.9383 157.463 76.245C158.047 77.5283 158.338 79.2083 158.338 81.285C158.338 83.3383 158.047 85.0067 157.463 86.29C156.903 87.5733 155.982 88.5183 154.698 89.125C153.415 89.7083 151.712 90 149.588 90C146.415 90 144.163 89.3233 142.833 87.97C141.503 86.5933 140.838 84.365 140.838 81.285ZM149.588 85.205C150.942 85.205 151.852 84.9133 152.318 84.33C152.808 83.7233 153.053 82.6733 153.053 81.18C153.053 79.7567 152.808 78.7417 152.318 78.135C151.852 77.505 150.942 77.19 149.588 77.19C148.282 77.19 147.372 77.505 146.858 78.135C146.368 78.7417 146.123 79.7567 146.123 81.18C146.123 82.6733 146.368 83.7233 146.858 84.33C147.372 84.9133 148.282 85.205 149.588 85.205Z" fill="#330C0C"/>
<path d="M48.7553 122.2L41.9518 123.464L40.1418 113.101C39.9446 111.972 40.1163 111.018 40.6571 110.239C41.1978 109.461 42.0319 108.967 43.1592 108.757C43.7885 108.64 44.3983 108.567 44.9889 108.539C45.6057 108.506 46.0651 108.502 46.3673 108.527L48.7553 122.2ZM45.7713 124.178L44.8217 118.741L56.659 116.541C56.893 116.796 57.1299 117.145 57.3698 117.589C57.6051 118.006 57.771 118.491 57.8673 119.042C58.037 120.014 57.9381 120.765 57.5704 121.294C57.2289 121.819 56.6911 122.149 55.957 122.286L45.7713 124.178ZM44.1227 114.274L43.1592 108.757L56.255 106.323C56.489 106.578 56.7129 106.93 56.9265 107.379C57.1664 107.822 57.3345 108.32 57.4309 108.871C57.6006 109.843 57.5039 110.607 57.1408 111.163C56.7993 111.687 56.2615 112.018 55.5274 112.154L44.1227 114.274ZM41.6558 121.77L48.538 120.491L50.5475 131.997C50.2729 132.129 49.8409 132.291 49.2517 132.482C48.6624 132.673 48.0532 132.827 47.424 132.944C46.0606 133.197 45.0624 133.138 44.4292 132.768C43.7915 132.371 43.3671 131.568 43.1561 130.36L41.6558 121.77Z" fill="#F5E6FF"/>
<path d="M68.8505 118.991L75.5498 120.157L72.5598 137.338C72.2571 137.367 71.823 137.373 71.2576 137.355C70.6922 137.338 70.0942 137.275 69.4637 137.165C68.334 136.968 67.4979 136.485 66.9554 135.713C66.4129 134.942 66.24 133.992 66.4366 132.862L68.8505 118.991ZM73.6228 131.23L66.9235 130.064L69.3374 116.193C69.534 115.063 70.0179 114.227 70.789 113.685C71.5601 113.142 72.5104 112.969 73.6401 113.166C74.2707 113.275 74.8549 113.418 75.3929 113.593C75.9309 113.767 76.3375 113.919 76.6128 114.048L73.6228 131.23ZM71.1302 127.589L72.0628 122.229L83.964 124.301C84.0976 124.622 84.1912 125.017 84.2448 125.486C84.3247 125.96 84.3167 126.473 84.2207 127.025C84.0515 127.997 83.7179 128.67 83.2198 129.043C82.7263 129.39 82.1118 129.5 81.3762 129.372L71.1302 127.589ZM69.4637 137.165L70.4101 131.727L83.5723 134.017C83.7059 134.338 83.7972 134.747 83.8463 135.242C83.9216 135.743 83.9113 136.269 83.8153 136.82C83.6461 137.792 83.3125 138.465 82.8144 138.839C82.3209 139.186 81.7064 139.296 80.9708 139.168L69.4637 137.165ZM72.7006 118.565L73.6401 113.166L86.6447 115.429C86.7783 115.75 86.8719 116.145 86.9256 116.615C87.0055 117.089 86.9974 117.601 86.9014 118.153C86.7322 119.125 86.3986 119.798 85.9006 120.171C85.4025 120.545 84.7856 120.668 84.05 120.54L72.7006 118.565Z" fill="#F5E6FF"/>
<path d="M108.457 132.14C109.667 131.646 110.44 131.1 110.776 130.502C111.113 129.904 111.183 129.357 110.987 128.861C110.79 128.365 110.44 128.061 109.937 127.95C109.424 127.814 108.761 127.768 107.947 127.812L106.185 127.926C104.556 128.015 103.079 128.013 101.751 127.921C100.439 127.794 99.2975 127.41 98.3266 126.77C97.3557 126.129 96.5853 125.09 96.0156 123.652C95.1806 121.545 95.315 119.531 96.4189 117.612C97.5474 115.683 99.5684 114.124 102.482 112.935C103.914 112.35 105.239 111.968 106.458 111.787C107.678 111.606 108.721 111.67 109.589 111.978C110.447 112.262 111.048 112.837 111.392 113.705C111.637 114.325 111.705 114.931 111.596 115.523C111.486 116.115 111.285 116.657 110.993 117.151C110.313 117.026 109.466 117.025 108.455 117.15C107.433 117.25 106.379 117.522 105.293 117.965C104.182 118.419 103.431 118.912 103.04 119.446C102.639 119.955 102.532 120.445 102.719 120.916C102.866 121.288 103.15 121.533 103.569 121.65C104.003 121.732 104.568 121.746 105.264 121.692L107.477 121.523C110.117 121.31 112.29 121.546 113.996 122.233C115.693 122.894 116.934 124.216 117.72 126.2C118.554 128.307 118.398 130.373 117.249 132.396C116.116 134.385 113.956 136.03 110.771 137.33C109.265 137.944 107.844 138.337 106.506 138.509C105.169 138.68 104.014 138.59 103.043 138.237C102.071 137.885 101.404 137.25 101.04 136.333C100.755 135.614 100.725 134.921 100.948 134.254C101.161 133.562 101.461 132.979 101.847 132.504C102.754 132.768 103.78 132.896 104.925 132.89C106.094 132.873 107.272 132.623 108.457 132.14Z" fill="#F5E6FF"/>
<path d="M132.971 124.294L134.3 118.855L147.214 122.121C147.325 122.452 147.388 122.867 147.403 123.366C147.445 123.871 147.399 124.396 147.266 124.94C147.032 125.899 146.638 126.555 146.084 126.91C145.563 127.246 144.94 127.323 144.217 127.139L132.971 124.294ZM141.436 120.66L140.106 126.1L127.193 122.833C127.082 122.502 127.005 122.084 126.964 121.578C126.949 121.079 127.008 120.558 127.141 120.014C127.381 119.03 127.762 118.37 128.283 118.034C128.83 117.705 129.466 117.632 130.19 117.815L141.436 120.66ZM133.305 123.265L140.091 124.982L135.419 144.099C135.116 144.105 134.657 144.071 134.044 143.999C133.43 143.926 132.813 143.811 132.193 143.654C130.848 143.314 129.962 142.842 129.533 142.239C129.11 141.609 129.044 140.699 129.336 139.507L133.305 123.265Z" fill="#F5E6FF"/>
</g>
<defs>
<clipPath id="clip0_48_272">
<rect width="194" height="174" fill="white"/>
</clipPath>
</defs>
</svg>
