<svg width="272" height="195" viewBox="0 0 272 195" fill="none" xmlns="http://www.w3.org/2000/svg">
<g clip-path="url(#clip0_35_2)">
<path d="M108.889 53.4708C108.889 70.773 91.7763 84.7991 70.6669 84.7991C49.5575 84.7991 33.7019 70.728 32.4449 53.4708C32.161 49.5732 31.9477 46.6455 31.7875 44.4503C30.9695 33.2404 39.6684 25.2845 50.6054 22.6934C52.9306 22.1426 46.4303 22.1426 70.6669 22.1426C91.7763 22.1426 108.889 36.1687 108.889 53.4708Z" fill="#5D87AE"/>
<path d="M105.622 141.993C92.9999 152 90.0218 163 70.7777 163C21.7777 166.237 35.9333 168.971 35.9333 141.993C35.9333 127.093 51.5337 115.015 70.7777 115.015C90.0218 115.015 105.622 127.093 105.622 141.993Z" fill="#5D87AE"/>
<path d="M99.0889 92.8926C99.0889 110.474 76.9071 124.727 49.5444 124.727C22.1818 124.727 14.1556 117.713 0 92.8926C20.1444 67.533 22.1818 61.0582 49.5444 61.0582C76.9071 61.0582 99.0889 75.311 99.0889 92.8926Z" fill="#5D87AE"/>
<path d="M162.244 40.5548C162.244 55.4544 146.644 67.533 127.4 67.533C108.156 67.533 92.5555 55.4544 92.5555 40.5548C92.5555 25.6551 104.533 17.3535 127.4 9.79955C152.444 18.4326 162.244 25.6551 162.244 40.5548Z" fill="#5D87AE"/>
<path d="M156.5 65.5C146 102 129.853 150.5 90.9999 150.5C52.1472 150.5 45.6253 122.996 44.7124 85.11C43.7995 47.2236 74.1545 23.4003 123.049 25.4745C171.944 27.5488 167 29 156.5 65.5Z" fill="#73A8B2"/>
<path d="M108.305 42.967C108.305 60.4373 92.5338 74.5997 73.0794 74.5997C53.625 74.5997 39.0126 60.3919 37.8541 42.967C37.4623 37.073 37.2164 33.3754 37.0622 31.0699C36.3822 20.9035 43.3221 11.9983 53.3646 10.276C67.1013 7.9201 68.6717 8.85302 82.0172 13.5158C93.5837 17.5571 108.305 25.4967 108.305 42.967Z" fill="#73A8B2"/>
<path d="M105.15 129.568C105.15 143.888 90.0855 155.497 71.5022 155.497C24.1845 158.608 37.8541 155.497 37.8541 129.568C37.8541 115.248 52.9188 103.64 71.5022 103.64C90.0855 103.64 105.15 115.248 105.15 129.568Z" fill="#73A8B2"/>
<path d="M98.8412 82.3782C98.8412 99.2757 77.421 112.974 50.9979 112.974C24.5747 112.974 16.8241 106.232 3.15454 82.3782C22.6073 58.0055 24.5747 51.7826 50.9979 51.7826C77.421 51.7826 98.8412 65.4808 98.8412 82.3782Z" fill="#73A8B2"/>
<path d="M159.828 32.077C159.828 46.3969 144.764 58.0055 126.18 58.0055C107.597 58.0055 92.5322 46.3969 92.5322 32.077C92.5322 17.7571 104.099 9.77854 126.18 2.51857C150.365 10.8157 159.828 17.7571 159.828 32.077Z" fill="#73A8B2"/>
<path d="M233.647 18.0878L216.677 95.7711L161.099 50.8346L233.647 18.0878Z" fill="#AA8634"/>
<path d="M258.482 95.4018L194.265 115.781L197.225 67.3695L258.482 95.4018Z" fill="#AA8634"/>
<path d="M271.973 52.0945L202.731 96.5619L191.206 68L271.973 52.0945Z" fill="#AA8634"/>
<path d="M202.577 184.431L207.378 117.596L142.678 135.26L202.577 184.431Z" fill="#AA8634"/>
<path d="M250.78 116.73L182.182 99.1053L185.265 141.182L250.78 116.73Z" fill="#AA8634"/>
<path d="M258.583 154.132L189.341 117.023L177.816 140.859L258.583 154.132Z" fill="#AA8634"/>
<path d="M189.108 182.328L117.897 146.775L175.191 104.042L189.108 182.328Z" fill="#AA8634"/>
<path d="M107.962 187.331L103.996 120.154L150.25 134.939L107.962 187.331Z" fill="#AA8634"/>
<path d="M144.197 192.778L119.945 128.512L150.502 124.389L144.197 192.778Z" fill="#AA8634"/>
<path d="M89.1594 174.624L123.154 112.564L90.7604 120.302L89.1594 174.624Z" fill="#AA8634"/>
<path d="M172.292 22.1992L135.011 82.3474L176.148 91.9416L172.292 22.1992Z" fill="#AA8634"/>
<path d="M211.047 32.2782L154.95 87.2368L174.3 105.324L211.047 32.2782Z" fill="#AA8634"/>
<path d="M63.4793 181.718L67.5733 143.571L113.334 140.957L63.4793 181.718Z" fill="#AA8634"/>
<path d="M232.532 6.94409L215.561 84.6273L159.983 39.6908L232.532 6.94409Z" fill="#CCA541"/>
<path d="M257.366 84.2581L193.149 104.637L196.109 56.2257L257.366 84.2581Z" fill="#CCA541"/>
<path d="M270.857 40.9508L201.615 85.4181L190.09 56.8563L270.857 40.9508Z" fill="#CCA541"/>
<path d="M201.462 173.287L206.262 106.452L141.562 124.117L201.462 173.287Z" fill="#CCA541"/>
<path d="M249.664 105.587L181.066 87.9616L184.15 130.038L249.664 105.587Z" fill="#CCA541"/>
<path d="M257.467 142.989L188.225 105.879L176.7 129.715L257.467 142.989Z" fill="#CCA541"/>
<path d="M187.993 171.185L116.781 135.631L174.076 92.8982L187.993 171.185Z" fill="#CCA541"/>
<path d="M106.846 176.187L102.88 109.01L149.134 123.796L106.846 176.187Z" fill="#CCA541"/>
<path d="M143.081 181.634L118.829 117.368L149.386 113.245L143.081 181.634Z" fill="#CCA541"/>
<path d="M88.0434 163.48L122.039 101.42L90.2802 115.918L88.0434 163.48Z" fill="#CCA541"/>
<path d="M167.829 15.513L130.548 75.6611L171.685 85.2554L167.829 15.513Z" fill="#CCA541"/>
<path d="M209.931 21.1345L153.834 76.0931L173.184 94.1807L209.931 21.1345Z" fill="#CCA541"/>
<path d="M62.3634 170.574L60.1493 155.83L112.218 129.813L62.3634 170.574Z" fill="#CCA541"/>
<path d="M113.884 93.9733C116.703 91.4019 119.219 88.5161 121.381 85.3725L149.961 43.8319L198.931 46.2673V137.836L60.1492 156.363L61.7969 150.957C64.4145 142.368 69.2963 134.643 75.9297 128.593L113.884 93.9733Z" fill="#CCA541"/>
<path d="M97.7205 54.775H98.9705C99.6705 54.775 100.246 54.6167 100.696 54.3C101.146 53.9667 101.371 53.4833 101.371 52.85C101.371 52.2167 101.162 51.7417 100.746 51.425C100.346 51.0917 99.7038 50.925 98.8205 50.925C98.6038 50.925 98.4122 50.9333 98.2455 50.95C98.0788 50.9667 97.9038 50.9917 97.7205 51.025V54.775ZM99.4205 58.1H93.3955V49.275C93.3955 48.925 93.4955 48.6583 93.6955 48.475C93.8955 48.275 94.1538 48.1167 94.4705 48C95.0372 47.8 95.6955 47.6583 96.4455 47.575C97.1955 47.475 97.9955 47.425 98.8455 47.425C101.146 47.425 102.879 47.9167 104.046 48.9C105.212 49.8667 105.796 51.1667 105.796 52.8C105.796 53.8167 105.504 54.725 104.921 55.525C104.354 56.325 103.587 56.9583 102.621 57.425C101.671 57.875 100.604 58.1 99.4205 58.1ZM98.4955 57.125L102.471 56.325C102.837 56.825 103.212 57.3167 103.596 57.8C103.979 58.2833 104.337 58.75 104.671 59.2C105.021 59.65 105.337 60.0667 105.621 60.45C105.904 60.8333 106.129 61.1667 106.296 61.45C106.129 62.0167 105.821 62.4583 105.371 62.775C104.937 63.0917 104.446 63.25 103.896 63.25C103.179 63.25 102.629 63.0917 102.246 62.775C101.879 62.4583 101.537 62.0417 101.221 61.525L98.4955 57.125ZM93.3955 56.4H97.7705V62.975C97.5872 63.025 97.3038 63.075 96.9205 63.125C96.5372 63.175 96.1455 63.2 95.7455 63.2C94.8788 63.2 94.2705 63.05 93.9205 62.75C93.5705 62.4333 93.3955 61.8917 93.3955 61.125V56.4ZM109.989 58.825L109.839 56.025L115.614 55.075C115.58 54.7417 115.414 54.4083 115.114 54.075C114.814 53.7417 114.347 53.575 113.714 53.575C113.047 53.575 112.489 53.7917 112.039 54.225C111.605 54.6583 111.372 55.275 111.339 56.075L111.489 58.175C111.655 58.9417 112.03 59.475 112.614 59.775C113.214 60.075 113.88 60.225 114.614 60.225C115.314 60.225 115.98 60.1333 116.614 59.95C117.247 59.7667 117.755 59.5667 118.139 59.35C118.405 59.5167 118.63 59.75 118.814 60.05C118.997 60.35 119.089 60.6667 119.089 61C119.089 61.55 118.88 62.0083 118.464 62.375C118.064 62.725 117.505 62.9833 116.789 63.15C116.072 63.3167 115.247 63.4 114.314 63.4C113.014 63.4 111.839 63.1583 110.789 62.675C109.755 62.175 108.93 61.4333 108.314 60.45C107.714 59.4667 107.414 58.2333 107.414 56.75C107.414 55.65 107.589 54.7 107.939 53.9C108.305 53.1 108.789 52.45 109.389 51.95C109.989 51.45 110.655 51.0833 111.389 50.85C112.139 50.6 112.905 50.475 113.689 50.475C114.872 50.475 115.905 50.7083 116.789 51.175C117.672 51.625 118.364 52.25 118.864 53.05C119.364 53.8333 119.614 54.7417 119.614 55.775C119.614 56.3417 119.455 56.775 119.139 57.075C118.822 57.375 118.38 57.5667 117.814 57.65L109.989 58.825ZM126.859 60.3C127.143 60.3 127.451 60.275 127.784 60.225C128.134 60.1583 128.393 60.075 128.559 59.975V57.975L126.759 58.125C126.293 58.1583 125.909 58.2583 125.609 58.425C125.309 58.5917 125.159 58.8417 125.159 59.175C125.159 59.5083 125.284 59.7833 125.534 60C125.801 60.2 126.243 60.3 126.859 60.3ZM126.659 50.475C128.476 50.475 129.926 50.85 131.009 51.6C132.109 52.3333 132.659 53.4833 132.659 55.05V60.65C132.659 61.0833 132.534 61.4417 132.284 61.725C132.051 61.9917 131.768 62.225 131.434 62.425C130.901 62.7417 130.251 62.9833 129.484 63.15C128.718 63.3167 127.843 63.4 126.859 63.4C125.109 63.4 123.701 63.0667 122.634 62.4C121.584 61.7167 121.059 60.6917 121.059 59.325C121.059 58.175 121.401 57.2917 122.084 56.675C122.784 56.0583 123.843 55.675 125.259 55.525L128.534 55.175V55C128.534 54.5167 128.318 54.175 127.884 53.975C127.468 53.7583 126.859 53.65 126.059 53.65C125.443 53.65 124.826 53.7167 124.209 53.85C123.609 53.9833 123.068 54.15 122.584 54.35C122.368 54.2 122.184 53.975 122.034 53.675C121.884 53.3583 121.809 53.0333 121.809 52.7C121.809 51.9 122.234 51.3333 123.084 51C123.568 50.8167 124.134 50.6833 124.784 50.6C125.451 50.5167 126.076 50.475 126.659 50.475ZM135.383 56.4H139.633V62.975C139.45 63.025 139.183 63.075 138.833 63.125C138.5 63.175 138.133 63.2 137.733 63.2C136.916 63.2 136.316 63.0583 135.933 62.775C135.566 62.4917 135.383 61.9667 135.383 61.2V56.4ZM139.633 58.625H135.383V46.7C135.566 46.65 135.825 46.6 136.158 46.55C136.508 46.5 136.883 46.475 137.283 46.475C138.116 46.475 138.716 46.6167 139.083 46.9C139.45 47.1667 139.633 47.6917 139.633 48.475V58.625ZM153.763 54.65V57.475H149.513V55.225C149.513 54.725 149.363 54.3667 149.063 54.15C148.779 53.9167 148.429 53.8 148.013 53.8C147.696 53.8 147.421 53.85 147.188 53.95C146.954 54.0333 146.763 54.1167 146.613 54.2V57.475H142.363V53.675C142.363 53.225 142.454 52.8583 142.638 52.575C142.838 52.2917 143.104 52.0333 143.438 51.8C144.004 51.4 144.704 51.0833 145.538 50.85C146.388 50.6 147.271 50.475 148.188 50.475C148.971 50.475 149.721 50.6 150.438 50.85C151.154 51.0833 151.804 51.4667 152.388 52C152.521 52.1167 152.654 52.2333 152.788 52.35C152.938 52.4667 153.046 52.5917 153.113 52.725C153.296 53.0083 153.446 53.3167 153.562 53.65C153.696 53.9833 153.763 54.3167 153.763 54.65ZM160.913 55.1V57.475H156.663V55.225C156.663 54.725 156.529 54.3667 156.263 54.15C155.996 53.9167 155.646 53.8 155.213 53.8C154.896 53.8 154.596 53.8667 154.313 54C154.029 54.1167 153.796 54.25 153.613 54.4L151.288 52.025C151.871 51.6083 152.513 51.25 153.213 50.95C153.929 50.6333 154.813 50.475 155.863 50.475C156.713 50.475 157.521 50.625 158.288 50.925C159.071 51.225 159.704 51.7167 160.188 52.4C160.671 53.0667 160.913 53.9667 160.913 55.1ZM142.363 56.4H146.613V62.975C146.429 63.025 146.163 63.075 145.813 63.125C145.479 63.175 145.113 63.2 144.713 63.2C143.896 63.2 143.296 63.0583 142.913 62.775C142.546 62.4917 142.363 61.9667 142.363 61.2V56.4ZM149.513 56.4H153.763V62.975C153.579 63.025 153.313 63.075 152.963 63.125C152.629 63.175 152.263 63.2 151.863 63.2C151.046 63.2 150.446 63.0583 150.063 62.775C149.696 62.4917 149.513 61.9667 149.513 61.2V56.4ZM156.663 56.4H160.913V62.975C160.729 63.025 160.463 63.075 160.113 63.125C159.779 63.175 159.413 63.2 159.013 63.2C158.196 63.2 157.596 63.0583 157.213 62.775C156.846 62.4917 156.663 61.9667 156.663 61.2V56.4ZM65.3963 94.775H66.6463C67.3463 94.775 67.9213 94.6167 68.3713 94.3C68.8213 93.9667 69.0463 93.4833 69.0463 92.85C69.0463 92.2167 68.838 91.7417 68.4213 91.425C68.0213 91.0917 67.3796 90.925 66.4963 90.925C66.2796 90.925 66.088 90.9333 65.9213 90.95C65.7546 90.9667 65.5796 90.9917 65.3963 91.025V94.775ZM67.0963 98.1H61.0713V89.275C61.0713 88.925 61.1713 88.6583 61.3713 88.475C61.5713 88.275 61.8296 88.1167 62.1463 88C62.713 87.8 63.3713 87.6583 64.1213 87.575C64.8713 87.475 65.6713 87.425 66.5213 87.425C68.8213 87.425 70.5546 87.9167 71.7213 88.9C72.888 89.8667 73.4713 91.1667 73.4713 92.8C73.4713 93.8167 73.1796 94.725 72.5963 95.525C72.0296 96.325 71.263 96.9583 70.2963 97.425C69.3463 97.875 68.2796 98.1 67.0963 98.1ZM66.1713 97.125L70.1463 96.325C70.513 96.825 70.888 97.3167 71.2713 97.8C71.6546 98.2833 72.013 98.75 72.3463 99.2C72.6963 99.65 73.013 100.067 73.2963 100.45C73.5796 100.833 73.8046 101.167 73.9713 101.45C73.8046 102.017 73.4963 102.458 73.0463 102.775C72.613 103.092 72.1213 103.25 71.5713 103.25C70.8546 103.25 70.3046 103.092 69.9213 102.775C69.5546 102.458 69.213 102.042 68.8963 101.525L66.1713 97.125ZM61.0713 96.4H65.4463V102.975C65.263 103.025 64.9796 103.075 64.5963 103.125C64.213 103.175 63.8213 103.2 63.4213 103.2C62.5546 103.2 61.9463 103.05 61.5963 102.75C61.2463 102.433 61.0713 101.892 61.0713 101.125V96.4ZM77.6645 98.825L77.5145 96.025L83.2895 95.075C83.2561 94.7417 83.0895 94.4083 82.7895 94.075C82.4895 93.7417 82.0228 93.575 81.3895 93.575C80.7228 93.575 80.1645 93.7917 79.7145 94.225C79.2811 94.6583 79.0478 95.275 79.0145 96.075L79.1645 98.175C79.3311 98.9417 79.7061 99.475 80.2895 99.775C80.8895 100.075 81.5561 100.225 82.2895 100.225C82.9895 100.225 83.6561 100.133 84.2895 99.95C84.9228 99.7667 85.4311 99.5667 85.8145 99.35C86.0811 99.5167 86.3061 99.75 86.4895 100.05C86.6728 100.35 86.7645 100.667 86.7645 101C86.7645 101.55 86.5561 102.008 86.1395 102.375C85.7395 102.725 85.1811 102.983 84.4645 103.15C83.7478 103.317 82.9228 103.4 81.9895 103.4C80.6895 103.4 79.5145 103.158 78.4645 102.675C77.4311 102.175 76.6061 101.433 75.9895 100.45C75.3895 99.4667 75.0895 98.2333 75.0895 96.75C75.0895 95.65 75.2645 94.7 75.6145 93.9C75.9811 93.1 76.4645 92.45 77.0645 91.95C77.6645 91.45 78.3311 91.0833 79.0645 90.85C79.8145 90.6 80.5811 90.475 81.3645 90.475C82.5478 90.475 83.5811 90.7083 84.4645 91.175C85.3478 91.625 86.0395 92.25 86.5395 93.05C87.0395 93.8333 87.2895 94.7417 87.2895 95.775C87.2895 96.3417 87.1311 96.775 86.8145 97.075C86.4978 97.375 86.0561 97.5667 85.4895 97.65L77.6645 98.825ZM99.5852 99.375C99.5852 100.642 99.1018 101.633 98.1352 102.35C97.1852 103.067 95.7935 103.425 93.9602 103.425C92.5435 103.425 91.3768 103.225 90.4602 102.825C89.5602 102.408 89.1102 101.767 89.1102 100.9C89.1102 100.5 89.1935 100.158 89.3602 99.875C89.5268 99.5917 89.7268 99.3667 89.9602 99.2C90.4435 99.4667 90.9935 99.7083 91.6102 99.925C92.2435 100.125 92.9685 100.225 93.7852 100.225C94.8518 100.225 95.3852 99.95 95.3852 99.4C95.3852 99.1667 95.2852 98.9833 95.0852 98.85C94.8852 98.7167 94.5518 98.6083 94.0852 98.525L93.3352 98.375C91.9018 98.0917 90.8268 97.6417 90.1102 97.025C89.3935 96.4083 89.0352 95.5417 89.0352 94.425C89.0352 93.175 89.5435 92.2 90.5602 91.5C91.5768 90.8 92.9018 90.45 94.5352 90.45C95.3518 90.45 96.0935 90.5333 96.7602 90.7C97.4435 90.85 97.9852 91.1 98.3852 91.45C98.7852 91.7833 98.9852 92.2167 98.9852 92.75C98.9852 93.1167 98.9102 93.4417 98.7602 93.725C98.6268 94.0083 98.4518 94.2417 98.2352 94.425C98.0518 94.3083 97.7602 94.1917 97.3602 94.075C96.9768 93.9583 96.5602 93.8583 96.1102 93.775C95.6602 93.6917 95.2602 93.65 94.9102 93.65C94.3602 93.65 93.9352 93.7167 93.6352 93.85C93.3352 93.9667 93.1852 94.1583 93.1852 94.425C93.1852 94.6083 93.2685 94.7583 93.4352 94.875C93.6018 94.9917 93.9185 95.1 94.3852 95.2L95.1602 95.375C96.7602 95.7417 97.8935 96.25 98.5602 96.9C99.2435 97.5333 99.5852 98.3583 99.5852 99.375ZM101.69 96.4H105.89V98.825C105.89 99.2417 106.023 99.55 106.29 99.75C106.573 99.9333 106.965 100.025 107.465 100.025C107.715 100.025 107.973 100.008 108.24 99.975C108.507 99.925 108.74 99.8667 108.94 99.8C109.09 99.9667 109.215 100.167 109.315 100.4C109.432 100.633 109.49 100.908 109.49 101.225C109.49 101.842 109.248 102.358 108.765 102.775C108.298 103.175 107.465 103.375 106.265 103.375C104.798 103.375 103.665 103.042 102.865 102.375C102.082 101.708 101.69 100.625 101.69 99.125V96.4ZM104.44 94.375V91.125H109.165C109.265 91.2917 109.357 91.5167 109.44 91.8C109.54 92.0833 109.59 92.3917 109.59 92.725C109.59 93.3083 109.457 93.7333 109.19 94C108.94 94.25 108.598 94.375 108.165 94.375H104.44ZM105.89 97H101.69V88.025C101.873 87.975 102.132 87.925 102.465 87.875C102.815 87.8083 103.182 87.775 103.565 87.775C104.382 87.775 104.973 87.9167 105.34 88.2C105.707 88.4833 105.89 89.0083 105.89 89.775V97ZM124.054 96.925C124.054 98.2583 123.779 99.4083 123.229 100.375C122.695 101.342 121.937 102.092 120.954 102.625C119.987 103.142 118.837 103.4 117.504 103.4C116.187 103.4 115.037 103.142 114.054 102.625C113.07 102.108 112.304 101.367 111.754 100.4C111.22 99.4333 110.954 98.275 110.954 96.925C110.954 95.6083 111.229 94.4667 111.779 93.5C112.329 92.5333 113.095 91.7917 114.079 91.275C115.062 90.7417 116.204 90.475 117.504 90.475C118.82 90.475 119.962 90.7417 120.929 91.275C121.912 91.8083 122.679 92.5583 123.229 93.525C123.779 94.4917 124.054 95.625 124.054 96.925ZM117.504 93.8C116.82 93.8 116.279 94.075 115.879 94.625C115.495 95.1583 115.304 95.925 115.304 96.925C115.304 97.9583 115.495 98.7417 115.879 99.275C116.262 99.8083 116.804 100.075 117.504 100.075C118.204 100.075 118.745 99.8083 119.129 99.275C119.512 98.725 119.704 97.9417 119.704 96.925C119.704 95.9417 119.504 95.175 119.104 94.625C118.72 94.075 118.187 93.8 117.504 93.8ZM130.377 94.425V97.275H126.127V93.775C126.127 93.2917 126.252 92.875 126.502 92.525C126.769 92.1583 127.11 91.8417 127.527 91.575C128.11 91.225 128.794 90.9583 129.577 90.775C130.36 90.5917 131.169 90.5 132.002 90.5C133.819 90.5 134.727 91.1417 134.727 92.425C134.727 92.725 134.685 93.0083 134.602 93.275C134.519 93.525 134.419 93.7417 134.302 93.925C134.135 93.8917 133.935 93.8667 133.702 93.85C133.469 93.8333 133.21 93.825 132.927 93.825C132.51 93.825 132.069 93.875 131.602 93.975C131.135 94.075 130.727 94.225 130.377 94.425ZM126.127 96.4H130.377V102.975C130.194 103.025 129.927 103.075 129.577 103.125C129.244 103.175 128.877 103.2 128.477 103.2C127.66 103.2 127.06 103.058 126.677 102.775C126.31 102.492 126.127 101.967 126.127 101.2V96.4ZM141.239 100.3C141.523 100.3 141.831 100.275 142.164 100.225C142.514 100.158 142.773 100.075 142.939 99.975V97.975L141.139 98.125C140.673 98.1583 140.289 98.2583 139.989 98.425C139.689 98.5917 139.539 98.8417 139.539 99.175C139.539 99.5083 139.664 99.7833 139.914 100C140.181 100.2 140.623 100.3 141.239 100.3ZM141.039 90.475C142.856 90.475 144.306 90.85 145.389 91.6C146.489 92.3333 147.039 93.4833 147.039 95.05V100.65C147.039 101.083 146.914 101.442 146.664 101.725C146.431 101.992 146.148 102.225 145.814 102.425C145.281 102.742 144.631 102.983 143.864 103.15C143.098 103.317 142.223 103.4 141.239 103.4C139.489 103.4 138.081 103.067 137.014 102.4C135.964 101.717 135.439 100.692 135.439 99.325C135.439 98.175 135.781 97.2917 136.464 96.675C137.164 96.0583 138.223 95.675 139.639 95.525L142.914 95.175V95C142.914 94.5167 142.698 94.175 142.264 93.975C141.848 93.7583 141.239 93.65 140.439 93.65C139.823 93.65 139.206 93.7167 138.589 93.85C137.989 93.9833 137.448 94.15 136.964 94.35C136.748 94.2 136.564 93.975 136.414 93.675C136.264 93.3583 136.189 93.0333 136.189 92.7C136.189 91.9 136.614 91.3333 137.464 91C137.948 90.8167 138.514 90.6833 139.164 90.6C139.831 90.5167 140.456 90.475 141.039 90.475ZM149.688 96.4H153.888V98.825C153.888 99.2417 154.021 99.55 154.288 99.75C154.571 99.9333 154.963 100.025 155.463 100.025C155.713 100.025 155.971 100.008 156.238 99.975C156.505 99.925 156.738 99.8667 156.938 99.8C157.088 99.9667 157.213 100.167 157.313 100.4C157.43 100.633 157.488 100.908 157.488 101.225C157.488 101.842 157.246 102.358 156.763 102.775C156.296 103.175 155.463 103.375 154.263 103.375C152.796 103.375 151.663 103.042 150.863 102.375C150.08 101.708 149.688 100.625 149.688 99.125V96.4ZM152.438 94.375V91.125H157.163C157.263 91.2917 157.355 91.5167 157.438 91.8C157.538 92.0833 157.588 92.3917 157.588 92.725C157.588 93.3083 157.455 93.7333 157.188 94C156.938 94.25 156.596 94.375 156.163 94.375H152.438ZM153.888 97H149.688V88.025C149.871 87.975 150.13 87.925 150.463 87.875C150.813 87.8083 151.18 87.775 151.563 87.775C152.38 87.775 152.971 87.9167 153.338 88.2C153.705 88.4833 153.888 89.0083 153.888 89.775V97ZM159.474 87.475C159.474 86.8417 159.691 86.3083 160.124 85.875C160.558 85.4417 161.116 85.225 161.799 85.225C162.483 85.225 163.041 85.4417 163.474 85.875C163.908 86.3083 164.124 86.8417 164.124 87.475C164.124 88.0917 163.908 88.625 163.474 89.075C163.041 89.5083 162.483 89.725 161.799 89.725C161.116 89.725 160.558 89.5083 160.124 89.075C159.691 88.625 159.474 88.0917 159.474 87.475ZM159.674 96.4H163.924V102.975C163.741 103.025 163.474 103.075 163.124 103.125C162.791 103.175 162.424 103.2 162.024 103.2C161.208 103.2 160.608 103.058 160.224 102.775C159.858 102.492 159.674 101.967 159.674 101.2V96.4ZM163.924 98.625H159.674V91.025C159.858 90.975 160.116 90.925 160.449 90.875C160.799 90.825 161.174 90.8 161.574 90.8C162.408 90.8 163.008 90.9417 163.374 91.225C163.741 91.4917 163.924 92.0167 163.924 92.8V98.625ZM179.205 96.925C179.205 98.2583 178.93 99.4083 178.38 100.375C177.847 101.342 177.088 102.092 176.105 102.625C175.138 103.142 173.988 103.4 172.655 103.4C171.338 103.4 170.188 103.142 169.205 102.625C168.222 102.108 167.455 101.367 166.905 100.4C166.372 99.4333 166.105 98.275 166.105 96.925C166.105 95.6083 166.38 94.4667 166.93 93.5C167.48 92.5333 168.247 91.7917 169.23 91.275C170.213 90.7417 171.355 90.475 172.655 90.475C173.972 90.475 175.113 90.7417 176.08 91.275C177.063 91.8083 177.83 92.5583 178.38 93.525C178.93 94.4917 179.205 95.625 179.205 96.925ZM172.655 93.8C171.972 93.8 171.43 94.075 171.03 94.625C170.647 95.1583 170.455 95.925 170.455 96.925C170.455 97.9583 170.647 98.7417 171.03 99.275C171.413 99.8083 171.955 100.075 172.655 100.075C173.355 100.075 173.897 99.8083 174.28 99.275C174.663 98.725 174.855 97.9417 174.855 96.925C174.855 95.9417 174.655 95.175 174.255 94.625C173.872 94.075 173.338 93.8 172.655 93.8ZM193.229 95.175V97.475H188.979V95.3C188.979 94.7833 188.82 94.4083 188.504 94.175C188.204 93.925 187.804 93.8 187.304 93.8C186.97 93.8 186.654 93.8417 186.354 93.925C186.07 94.0083 185.795 94.1167 185.529 94.25V97.475H181.279V93.675C181.279 93.225 181.37 92.8583 181.554 92.575C181.754 92.2917 182.02 92.0333 182.354 91.8C182.92 91.4 183.637 91.0833 184.504 90.85C185.37 90.6 186.32 90.475 187.354 90.475C189.237 90.475 190.687 90.8917 191.704 91.725C192.72 92.5417 193.229 93.6917 193.229 95.175ZM181.279 96.4H185.529V102.975C185.345 103.025 185.079 103.075 184.729 103.125C184.395 103.175 184.029 103.2 183.629 103.2C182.812 103.2 182.212 103.058 181.829 102.775C181.462 102.492 181.279 101.967 181.279 101.2V96.4ZM188.979 96.4H193.229V102.975C193.045 103.025 192.779 103.075 192.429 103.125C192.095 103.175 191.729 103.2 191.329 103.2C190.512 103.2 189.912 103.058 189.529 102.775C189.162 102.492 188.979 101.967 188.979 101.2V96.4Z" fill="#4F2A6D"/>
<path d="M103.219 119.37H105.844V125.985C105.734 126.015 105.564 126.045 105.334 126.075C105.104 126.105 104.869 126.12 104.629 126.12C104.109 126.12 103.744 126.03 103.534 125.85C103.324 125.66 103.219 125.335 103.219 124.875V119.37ZM105.844 122.835H103.219V116.88C103.339 116.86 103.514 116.835 103.744 116.805C103.984 116.765 104.214 116.745 104.434 116.745C104.934 116.745 105.294 116.83 105.514 117C105.734 117.17 105.844 117.5 105.844 117.99V122.835ZM108.724 119.37H111.349V125.985C111.239 126.015 111.069 126.045 110.839 126.075C110.609 126.105 110.374 126.12 110.134 126.12C109.614 126.12 109.249 126.03 109.039 125.85C108.829 125.66 108.724 125.335 108.724 124.875V119.37ZM111.349 122.835H108.724V116.88C108.844 116.86 109.019 116.835 109.249 116.805C109.489 116.765 109.719 116.745 109.939 116.745C110.439 116.745 110.799 116.835 111.019 117.015C111.239 117.195 111.349 117.53 111.349 118.02V122.835ZM110.239 122.49H104.344V120.42H110.239V122.49ZM114.332 123.495L114.242 121.815L117.707 121.245C117.687 121.045 117.587 120.845 117.407 120.645C117.227 120.445 116.947 120.345 116.567 120.345C116.167 120.345 115.832 120.475 115.562 120.735C115.302 120.995 115.162 121.365 115.142 121.845L115.232 123.105C115.332 123.565 115.557 123.885 115.907 124.065C116.267 124.245 116.667 124.335 117.107 124.335C117.527 124.335 117.927 124.28 118.307 124.17C118.687 124.06 118.992 123.94 119.222 123.81C119.382 123.91 119.517 124.05 119.627 124.23C119.737 124.41 119.792 124.6 119.792 124.8C119.792 125.13 119.667 125.405 119.417 125.625C119.177 125.835 118.842 125.99 118.412 126.09C117.982 126.19 117.487 126.24 116.927 126.24C116.147 126.24 115.442 126.095 114.812 125.805C114.192 125.505 113.697 125.06 113.327 124.47C112.967 123.88 112.787 123.14 112.787 122.25C112.787 121.59 112.892 121.02 113.102 120.54C113.322 120.06 113.612 119.67 113.972 119.37C114.332 119.07 114.732 118.85 115.172 118.71C115.622 118.56 116.082 118.485 116.552 118.485C117.262 118.485 117.882 118.625 118.412 118.905C118.942 119.175 119.357 119.55 119.657 120.03C119.957 120.5 120.107 121.045 120.107 121.665C120.107 122.005 120.012 122.265 119.822 122.445C119.632 122.625 119.367 122.74 119.027 122.79L114.332 123.495ZM123.646 121.35L124.111 121.335C124.451 120.875 124.786 120.425 125.116 119.985C125.456 119.535 125.796 119.08 126.136 118.62C126.186 118.61 126.231 118.605 126.271 118.605C126.311 118.605 126.351 118.605 126.391 118.605C126.861 118.605 127.231 118.705 127.501 118.905C127.781 119.105 127.921 119.365 127.921 119.685C127.921 119.945 127.856 120.175 127.726 120.375C127.606 120.575 127.381 120.86 127.051 121.23C126.801 121.51 126.551 121.79 126.301 122.07C126.051 122.34 125.801 122.615 125.551 122.895L124.801 123.21C124.461 123.7 124.121 124.185 123.781 124.665C123.451 125.145 123.116 125.63 122.776 126.12C122.736 126.12 122.681 126.12 122.611 126.12C122.551 126.13 122.501 126.135 122.461 126.135C121.961 126.135 121.576 126.03 121.306 125.82C121.036 125.61 120.901 125.35 120.901 125.04C120.901 124.8 120.956 124.59 121.066 124.41C121.186 124.22 121.386 123.965 121.666 123.645C121.996 123.265 122.326 122.885 122.656 122.505C122.986 122.115 123.316 121.73 123.646 121.35ZM125.131 121.575L125.716 121.875C126.096 122.385 126.481 122.895 126.871 123.405C127.261 123.915 127.646 124.425 128.026 124.935C127.976 125.315 127.826 125.615 127.576 125.835C127.326 126.055 127.026 126.165 126.676 126.165C126.306 126.155 126.006 126.045 125.776 125.835C125.546 125.625 125.326 125.37 125.116 125.07C124.876 124.73 124.636 124.39 124.396 124.05C124.166 123.71 123.931 123.37 123.691 123.03L123.316 122.79C122.906 122.31 122.496 121.83 122.086 121.35C121.676 120.86 121.266 120.375 120.856 119.895C120.936 119.515 121.096 119.205 121.336 118.965C121.576 118.725 121.866 118.605 122.206 118.605C122.536 118.605 122.791 118.685 122.971 118.845C123.151 119.005 123.351 119.23 123.571 119.52C123.831 119.86 124.091 120.2 124.351 120.54C124.611 120.88 124.871 121.225 125.131 121.575ZM132.233 124.38C132.403 124.38 132.588 124.365 132.788 124.335C132.998 124.295 133.153 124.245 133.253 124.185V122.985L132.173 123.075C131.893 123.095 131.663 123.155 131.483 123.255C131.303 123.355 131.213 123.505 131.213 123.705C131.213 123.905 131.288 124.07 131.438 124.2C131.598 124.32 131.863 124.38 132.233 124.38ZM132.113 118.485C133.203 118.485 134.073 118.71 134.723 119.16C135.383 119.6 135.713 120.29 135.713 121.23V124.59C135.713 124.85 135.638 125.065 135.488 125.235C135.348 125.395 135.178 125.535 134.978 125.655C134.658 125.845 134.268 125.99 133.808 126.09C133.348 126.19 132.823 126.24 132.233 126.24C131.183 126.24 130.338 126.04 129.698 125.64C129.068 125.23 128.753 124.615 128.753 123.795C128.753 123.105 128.958 122.575 129.368 122.205C129.788 121.835 130.423 121.605 131.273 121.515L133.238 121.305V121.2C133.238 120.91 133.108 120.705 132.848 120.585C132.598 120.455 132.233 120.39 131.753 120.39C131.383 120.39 131.013 120.43 130.643 120.51C130.283 120.59 129.958 120.69 129.668 120.81C129.538 120.72 129.428 120.585 129.338 120.405C129.248 120.215 129.203 120.02 129.203 119.82C129.203 119.34 129.458 119 129.968 118.8C130.258 118.69 130.598 118.61 130.988 118.56C131.388 118.51 131.763 118.485 132.113 118.485ZM137.272 123.105V122.115H139.822V123.105C139.822 123.505 139.922 123.795 140.122 123.975C140.332 124.155 140.622 124.245 140.992 124.245C141.222 124.245 141.412 124.225 141.562 124.185C141.712 124.145 141.822 124.105 141.892 124.065V122.115H144.442V124.44C144.442 124.69 144.387 124.91 144.277 125.1C144.177 125.28 144.022 125.435 143.812 125.565C143.462 125.785 143.042 125.95 142.552 126.06C142.072 126.18 141.547 126.24 140.977 126.24C140.257 126.24 139.617 126.135 139.057 125.925C138.497 125.705 138.057 125.365 137.737 124.905C137.427 124.445 137.272 123.845 137.272 123.105ZM144.442 122.76H141.892V118.74C142.002 118.71 142.157 118.68 142.357 118.65C142.567 118.62 142.792 118.605 143.032 118.605C143.532 118.605 143.892 118.69 144.112 118.86C144.332 119.02 144.442 119.335 144.442 119.805V122.76ZM139.822 122.76H137.272V118.74C137.382 118.71 137.537 118.68 137.737 118.65C137.947 118.62 138.172 118.605 138.412 118.605C138.912 118.605 139.272 118.69 139.492 118.86C139.712 119.02 139.822 119.335 139.822 119.805V122.76ZM146.032 122.04H148.552V123.495C148.552 123.745 148.632 123.93 148.792 124.05C148.962 124.16 149.197 124.215 149.497 124.215C149.647 124.215 149.802 124.205 149.962 124.185C150.122 124.155 150.262 124.12 150.382 124.08C150.472 124.18 150.547 124.3 150.607 124.44C150.677 124.58 150.712 124.745 150.712 124.935C150.712 125.305 150.567 125.615 150.277 125.865C149.997 126.105 149.497 126.225 148.777 126.225C147.897 126.225 147.217 126.025 146.737 125.625C146.267 125.225 146.032 124.575 146.032 123.675V122.04ZM147.682 120.825V118.875H150.517C150.577 118.975 150.632 119.11 150.682 119.28C150.742 119.45 150.772 119.635 150.772 119.835C150.772 120.185 150.692 120.44 150.532 120.6C150.382 120.75 150.177 120.825 149.917 120.825H147.682ZM148.552 122.4H146.032V117.015C146.142 116.985 146.297 116.955 146.497 116.925C146.707 116.885 146.927 116.865 147.157 116.865C147.647 116.865 148.002 116.95 148.222 117.12C148.442 117.29 148.552 117.605 148.552 118.065V122.4ZM151.904 116.685C151.904 116.305 152.034 115.985 152.294 115.725C152.554 115.465 152.889 115.335 153.299 115.335C153.709 115.335 154.044 115.465 154.304 115.725C154.564 115.985 154.694 116.305 154.694 116.685C154.694 117.055 154.564 117.375 154.304 117.645C154.044 117.905 153.709 118.035 153.299 118.035C152.889 118.035 152.554 117.905 152.294 117.645C152.034 117.375 151.904 117.055 151.904 116.685ZM152.024 122.04H154.574V125.985C154.464 126.015 154.304 126.045 154.094 126.075C153.894 126.105 153.674 126.12 153.434 126.12C152.944 126.12 152.584 126.035 152.354 125.865C152.134 125.695 152.024 125.38 152.024 124.92V122.04ZM154.574 123.375H152.024V118.815C152.134 118.785 152.289 118.755 152.489 118.725C152.699 118.695 152.924 118.68 153.164 118.68C153.664 118.68 154.024 118.765 154.244 118.935C154.464 119.095 154.574 119.41 154.574 119.88V123.375ZM160.307 120.495C159.807 120.495 159.372 120.655 159.002 120.975C158.642 121.295 158.462 121.765 158.462 122.385C158.462 123.005 158.637 123.465 158.987 123.765C159.337 124.065 159.772 124.215 160.292 124.215C160.592 124.215 160.857 124.18 161.087 124.11C161.327 124.03 161.527 123.95 161.687 123.87C161.877 124.01 162.017 124.16 162.107 124.32C162.207 124.48 162.257 124.675 162.257 124.905C162.257 125.305 162.057 125.625 161.657 125.865C161.267 126.105 160.707 126.225 159.977 126.225C159.147 126.225 158.422 126.08 157.802 125.79C157.192 125.5 156.717 125.07 156.377 124.5C156.047 123.92 155.882 123.215 155.882 122.385C155.882 121.505 156.067 120.78 156.437 120.21C156.807 119.63 157.297 119.2 157.907 118.92C158.517 118.63 159.182 118.485 159.902 118.485C160.612 118.485 161.162 118.615 161.552 118.875C161.952 119.135 162.152 119.47 162.152 119.88C162.152 120.07 162.107 120.25 162.017 120.42C161.927 120.58 161.822 120.72 161.702 120.84C161.532 120.76 161.327 120.685 161.087 120.615C160.847 120.535 160.587 120.495 160.307 120.495Z" fill="#4F2A6D"/>
</g>
<defs>
<clipPath id="clip0_35_2">
<rect width="272" height="195" fill="white"/>
</clipPath>
</defs>
</svg>
