<svg width="16" height="17" viewBox="0 0 16 17" fill="none" xmlns="http://www.w3.org/2000/svg">
<g clip-path="url(#clip0_54_7)">
<path d="M1 5.09488C1 4.37121 1.39092 3.70399 2.02221 3.35019L7.02221 0.547993C7.62962 0.207573 8.37037 0.207573 8.97779 0.547993L13.9778 3.35019C14.6091 3.70399 15 4.37121 15 5.09488V11.9051C15 12.6288 14.6091 13.296 13.9778 13.6498L8.97779 16.452C8.37037 16.7924 7.62963 16.7924 7.02221 16.452L2.02221 13.6498C1.39092 13.296 1 12.6288 1 11.9051V5.09488Z" fill="#866CB1"/>
<path d="M4.155 7H6.06V12.97C5.98 13 5.855 13.025 5.685 13.045C5.525 13.075 5.355 13.09 5.175 13.09C4.815 13.09 4.555 13.025 4.395 12.895C4.235 12.755 4.155 12.525 4.155 12.205V7ZM6.06 9.175H4.155V3.895C4.245 3.875 4.37 3.85 4.53 3.82C4.7 3.79 4.87 3.775 5.04 3.775C5.4 3.775 5.66 3.84 5.82 3.97C5.98 4.09 6.06 4.32 6.06 4.66V9.175ZM9.885 7H11.775V12.97C11.695 13 11.57 13.025 11.4 13.045C11.24 13.075 11.075 13.09 10.905 13.09C10.535 13.09 10.27 13.025 10.11 12.895C9.96 12.755 9.885 12.525 9.885 12.205V7ZM11.775 9.175H9.885V3.895C9.965 3.875 10.085 3.85 10.245 3.82C10.415 3.79 10.585 3.775 10.755 3.775C11.115 3.775 11.375 3.84 11.535 3.97C11.695 4.1 11.775 4.335 11.775 4.675V9.175ZM10.935 9.175H5.085V7.66H10.935V9.175Z" fill="#F5E5FF"/>
</g>
<defs>
<clipPath id="clip0_54_7">
<rect width="16" height="17" fill="white"/>
</clipPath>
</defs>
</svg>
