<svg width="2221" height="2052" viewBox="0 0 2221 2052" fill="none" xmlns="http://www.w3.org/2000/svg">
<g clip-path="url(#clip0_49_2)">
<path d="M404.135 984.968L404.821 984.575L405.156 983.859C412.025 969.207 418.476 957.797 424.57 949.259C430.678 940.701 436.336 935.159 441.574 932.084C446.738 929.052 451.475 928.421 455.996 929.633C460.612 930.871 465.306 934.112 470.121 939.412C479.786 950.048 489.246 968.191 499.028 991.602C508.782 1014.95 518.736 1043.22 529.488 1073.91C529.852 1074.95 530.216 1075.99 530.581 1077.03C551.8 1137.61 576.137 1207.09 607.934 1265.53C639.784 1324.06 679.421 1372.09 731.482 1388.66C696.441 1544.64 658.53 1641.61 618.159 1699.25C597.898 1728.18 577.072 1747.12 555.753 1758.67C534.452 1770.21 512.525 1774.46 489.931 1773.78C445.864 1772.47 399.435 1752.51 350.392 1731.43C348.937 1730.8 347.48 1730.18 346.02 1729.55C295.58 1707.88 242.535 1685.66 187.514 1682.98C166.016 1681.93 144.234 1678.81 128.918 1665.07C106.022 1644.52 96.9499 1621.89 95.4217 1597.47C93.8837 1572.89 99.9788 1546.44 107.678 1518.3C109.076 1513.19 110.528 1508.03 111.994 1502.81C126.575 1450.95 142.545 1394.14 121.303 1336.11C115.875 1321.28 109.738 1305.97 103.543 1290.53C99.5579 1280.59 95.5492 1270.6 91.6902 1260.63C81.7982 1235.08 72.8233 1209.56 67.4358 1185.06C56.662 1136.05 60.3346 1091.7 99.0807 1059.28C146.065 1019.97 190.767 1018.95 239.715 1019.12C241.219 1019.12 242.726 1019.13 244.238 1019.13C291.978 1019.33 343.737 1019.55 404.135 984.968Z" fill="#866CB1" stroke="black" stroke-width="5"/>
<path d="M1057.11 1668.29L1058.37 1668.78L1058.65 1670.09C1082.05 1778.87 1125.35 1852.43 1177.97 1899.48C1230.58 1946.51 1292.69 1967.19 1354.01 1969.9C1415.35 1972.61 1475.89 1957.32 1525.19 1932.44C1574.54 1907.54 1612.34 1873.18 1628.6 1838.01L1629.21 1836.68L1630.66 1836.56C1695.46 1831.23 1744.25 1821.71 1780.21 1808.94C1816.19 1796.16 1839.16 1780.2 1852.56 1762.1C1879.22 1726.09 1868.82 1680.32 1843.96 1630.6C1831.58 1605.84 1815.74 1580.37 1799.5 1555C1796.5 1550.3 1793.48 1545.62 1790.47 1540.94C1777.22 1520.35 1764.08 1499.93 1752.79 1480.24C1738.93 1456.08 1727.73 1432.81 1722.46 1411.4C1717.18 1389.97 1717.78 1370.12 1727.9 1353.09C1730.89 1348.07 1732.43 1342.25 1731.1 1337.1C1720.37 1295.46 1702.98 1269.2 1680.43 1251.47C1657.81 1233.68 1629.78 1224.28 1597.36 1216.81C1584.34 1213.8 1570.62 1211.12 1556.3 1208.32C1499.73 1197.25 1433.87 1184.36 1364.95 1142.87C1313.81 1143.09 1247.2 1167.35 1181.28 1206.07C1115.13 1244.94 1050.02 1298.17 1002.42 1355.62C954.749 1413.15 924.962 1474.51 928.677 1529.7C932.37 1584.56 969.264 1634.2 1057.11 1668.29Z" fill="#866CB1" stroke="black" stroke-width="5"/>
<path d="M1191.84 1677.5C1198.46 1692.48 1200.43 1709.84 1198.11 1726.15C1176.04 1881.42 1139.22 1966.98 1093.51 2010.42C1048.04 2053.64 993.29 2055.6 933.803 2042.12C904.044 2035.38 873.238 2024.8 841.958 2013.68C838.262 2012.37 834.56 2011.05 830.853 2009.73C803.225 1999.87 775.297 1989.9 747.625 1982.17C685.016 1964.68 623.062 1958.43 567.739 1991.04C511.556 2003.01 469.479 1987.88 439.196 1957.09C408.709 1926.09 389.965 1878.98 381.245 1826.87C372.532 1774.81 373.877 1718.05 383.317 1668.04C392.772 1617.95 410.276 1574.99 433.581 1550.25C436.621 1547.02 438.847 1543.02 439.905 1538.68C450.335 1495.86 467.564 1468.84 490.042 1450.62C512.584 1432.35 540.646 1422.72 573.167 1415.14C586.596 1412.01 600.772 1409.23 615.585 1406.33C672.164 1395.26 738.025 1382.37 806.954 1340.88C903.209 1341.13 985.092 1392.87 1050.16 1460.87C1115.37 1529.04 1163.44 1613.29 1191.84 1677.5Z" fill="#866CB1" stroke="black" stroke-width="5"/>
<path d="M1748 1687.09L1747.48 1686.84H1746.9C1721.44 1686.84 1702.2 1680 1687.48 1668.08C1672.73 1656.14 1662.29 1638.91 1654.8 1617.76C1639.76 1575.34 1636.8 1517.99 1633.8 1458.15L1633.75 1457.1C1630.77 1397.79 1627.68 1336.22 1612.34 1285.54C1597.09 1235.15 1569.59 1195.09 1517.77 1178.72C1553.58 1019.32 1592.39 921.553 1633.74 864.406C1654.5 835.734 1675.83 817.366 1697.69 806.534C1719.52 795.709 1742.03 792.333 1765.25 793.877C1807.54 796.691 1851.93 815.775 1898.68 835.87C1903.48 837.933 1908.31 840.007 1913.16 842.076C1965.01 864.189 2019.56 885.531 2076.17 884.641C2088.64 884.445 2100.93 884.857 2112.04 889.253C2154.08 905.879 2174.62 935.728 2183.24 973.34C2191.9 1011.16 2188.49 1056.76 2182.39 1104.56C2180.77 1117.32 2178.95 1130.24 2177.12 1143.2C2172.14 1178.59 2167.12 1214.26 2165.87 1247.66C2164.17 1293.31 2169.47 1335.37 2191.92 1367.4C2195.18 1372.05 2196.62 1377.57 2195.32 1382.75C2172.94 1471.95 2110.75 1572.5 2029.19 1638.48C1947.67 1704.43 1847.25 1735.55 1748 1687.09Z" fill="#866CB1" stroke="black" stroke-width="5"/>
<path d="M764.637 1412.29C741.039 1517.36 714.267 1586.36 685.508 1630.17C656.598 1674.21 625.792 1692.65 594.219 1696.89C562.465 1701.15 529.469 1691.13 496.048 1677.2C484.112 1672.23 472.2 1666.79 460.299 1661.35C455.547 1659.18 450.797 1657.01 446.048 1654.87C429.446 1647.4 412.903 1640.32 396.613 1635.05C381.56 1630.18 365.994 1624.42 353.263 1616.14C340.569 1607.89 330.884 1597.27 327.249 1582.7C321.872 1561.15 322.739 1539.42 326.204 1517.61C328.622 1502.39 332.275 1487.28 335.923 1472.2C337.52 1465.59 339.116 1458.99 340.607 1452.39C350.346 1409.26 355.455 1366.53 324.18 1327.06C322.911 1325.46 321.798 1323.56 321.129 1321.71C306.852 1282.34 305.747 1255.38 313.485 1235.79C321.202 1216.25 337.958 1203.44 360.936 1192.92C378.165 1185.03 398.556 1178.57 420.807 1171.53C428.311 1169.15 436.027 1166.71 443.904 1164.12C474.824 1153.96 507.983 1141.64 539.676 1122.54C576.066 1122.73 598.783 1137.57 614.898 1160.49C631.272 1183.78 640.843 1215.41 650.564 1248.98C650.985 1250.44 651.407 1251.9 651.83 1253.36C661.102 1285.44 670.771 1318.89 686.975 1347.27C703.65 1376.49 727.312 1400.46 764.637 1412.29Z" fill="#866CB1" stroke="black" stroke-width="5"/>
<path d="M1393.61 1566.62C1375.98 1547.09 1351.17 1531.25 1312.41 1523.38C1340.39 1445.05 1372.55 1397.16 1407.09 1369.23C1441.95 1341.05 1479.49 1333.03 1518.25 1334.9C1556.04 1336.72 1594.88 1347.93 1633.51 1359.09C1634.62 1359.41 1635.73 1359.73 1636.84 1360.05C1676.09 1371.37 1715.13 1382.37 1751.98 1382.55C1770.75 1398.85 1777.08 1415.15 1777.35 1431.33C1777.62 1447.92 1771.54 1464.63 1765.06 1481.62C1764.77 1482.39 1764.47 1483.17 1764.17 1483.95C1758.04 1499.98 1751.8 1516.29 1751.38 1532.23C1750.93 1549.24 1757.08 1565.68 1776.03 1581.15C1777.87 1582.65 1779.58 1584.55 1780.67 1586.49C1795.12 1612.21 1795.66 1629.28 1787.71 1641.53C1779.54 1654.12 1761.92 1662.61 1737.46 1669.64C1719.38 1674.83 1698.04 1679.1 1674.83 1683.75C1666.8 1685.36 1658.55 1687.01 1650.13 1688.76C1617.62 1695.52 1582.82 1703.72 1549.56 1716.41C1510.61 1716.34 1486.45 1706.28 1469.52 1691.06C1452.41 1675.66 1442.4 1654.77 1432.16 1632.4C1431.71 1631.42 1431.26 1630.44 1430.81 1629.46C1421.05 1608.1 1410.79 1585.66 1393.61 1566.62Z" fill="#866CB1" stroke="black" stroke-width="5"/>
<path d="M1549.31 1403.19L1548.99 1403.1H1548.65C1495.64 1403.1 1468.32 1387.08 1453.25 1363.11C1437.97 1338.8 1434.92 1305.87 1431.81 1270.95L1431.74 1270.18C1428.68 1235.8 1425.46 1199.69 1409.47 1169.92C1393.54 1140.24 1365.08 1117.13 1312.55 1107.6C1350.31 1013.35 1391.25 956.576 1434.88 924.061C1478.86 891.278 1525.86 882.954 1575.8 886.104C1617.2 888.715 1660.45 899.193 1705.62 910.138C1715.08 912.429 1724.62 914.74 1734.24 917.004C1789.64 930.035 1847.69 941.44 1907.87 937.837C1958.14 945.612 1983.65 961.691 1995.48 981.981C2007.39 1002.41 2005.91 1027.85 2000.35 1055.51C1998.24 1066.02 1995.56 1076.72 1992.87 1087.5C1992.03 1090.88 1991.18 1094.27 1990.35 1097.67C1986.87 1111.84 1983.66 1126.05 1982.04 1139.78C1978.78 1167.25 1981.79 1193.29 2002.07 1213.59C2008.29 1219.83 2011.12 1228.46 2007.45 1235.41C1980.72 1286.11 1916.36 1341.9 1833.39 1378.1C1750.48 1414.27 1649.36 1430.72 1549.31 1403.19Z" fill="#866CB1" stroke="black" stroke-width="5"/>
<path d="M418.392 753.775L418.826 753.943H419.291C433.16 753.943 443.532 756.885 451.392 761.909C459.246 766.929 464.8 774.159 468.812 783.095C476.912 801.14 478.537 825.635 480.19 851.639L480.228 852.238C481.854 877.808 483.561 904.673 492.063 926.848C500.466 948.764 515.542 966.198 543.446 973.573C523.402 1043.53 501.71 1085.56 478.72 1109.56C455.625 1133.67 431.1 1139.72 405.005 1137.41C383.208 1135.49 360.446 1127.76 336.45 1119.62C331.413 1117.91 326.321 1116.18 321.172 1114.49C291.798 1104.81 260.782 1096.24 228.556 1098.89C202.674 1093.24 189.502 1081.73 183.254 1067.1C176.872 1052.16 177.482 1033.49 180.331 1013.13C181.477 1004.95 182.968 996.582 184.472 988.149C184.831 986.137 185.19 984.122 185.545 982.104C187.386 971.658 189.12 961.17 190.069 951.016C191.961 930.773 190.792 911.389 180.713 895.96C176.798 889.968 174.729 883.305 176.961 877.463C191.316 839.885 225.409 798.735 269.173 772.106C312.894 745.502 365.954 733.564 418.392 753.775Z" fill="#866CB1" stroke="black" stroke-width="5"/>
<path d="M1861.64 1238.57C2021.89 1768.82 1242.78 1382.05 1104.64 1681.48C686.559 1681.48 452.623 1431.95 347.637 1238.57C458.148 1013.99 686.559 795.65 1104.64 795.65C1522.72 795.65 1861.64 993.951 1861.64 1238.57Z" fill="#866CB1"/>
<rect x="3.16286" y="-1.15972" width="285.42" height="342.404" rx="7.5" transform="matrix(0.378181 -0.925731 0.886962 0.461843 379.555 790.124)" fill="#D9D9D9" stroke="black" stroke-width="5"/>
<rect x="3.26569" y="-0.669211" width="304.522" height="372.908" rx="7.5" transform="matrix(0.503516 -0.863986 0.80276 0.596302 415.649 568.499)" fill="#D9D9D9" stroke="black" stroke-width="5"/>
<rect x="2.95979" y="1.73221" width="309.86" height="477.11" rx="7.5" transform="matrix(0.959528 -0.281613 0.22439 0.974499 595.811 252.115)" fill="#D9D9D9" stroke="black" stroke-width="5"/>
<rect x="-3.2285" y="-0.881532" width="283.165" height="345.535" rx="7.5" transform="matrix(-0.450003 -0.893027 -0.841399 0.540414 1783.96 732.213)" fill="#D9D9D9" stroke="black" stroke-width="5"/>
<rect x="-3.2986" y="-0.389447" width="301.633" height="376.752" rx="7.5" transform="matrix(-0.57208 -0.820198 -0.74736 0.664419 1730.4 515.14)" fill="#D9D9D9" stroke="black" stroke-width="5"/>
<rect x="-2.82885" y="1.99832" width="308.372" height="478.946" rx="7.5" transform="matrix(-0.981898 -0.189413 -0.149641 0.98874 1524.95 221.412)" fill="#D9D9D9" stroke="black" stroke-width="5"/>
<path d="M1408.3 617.72L1571.12 880.59H634.823L787.678 581.672L787.74 581.55L787.789 581.423L875.618 350.606L875.645 350.535L875.667 350.463L980.395 15.3502H1236.56L1313.47 350.277L1313.5 350.417L1313.55 350.552L1408.07 617.239L1408.16 617.492L1408.3 617.72Z" fill="#A4A3A3" stroke="black" stroke-width="5"/>
<path d="M1778.94 1392.13L441.003 1150.92L527.766 1056.26L528.868 1055.06L528.164 1053.52L485.919 961.509L484.409 831.445L1821.94 1072.58L1724.3 1165.14L1722.88 1166.48L1723.9 1168.23L1777.4 1259.58L1778.94 1392.13Z" fill="#986932" stroke="black" stroke-width="5"/>
<path d="M305.932 844.348V706.187H1901.34L1815.46 843.895L1814.02 846.207L1816.44 847.445L1903.35 891.782V1112.91H308.311L407.31 975.343L408.413 973.811L407.241 972.331L305.932 844.348Z" fill="#986932" stroke="black" stroke-width="5"/>
<path d="M1258.15 101.831V102.171L1258.24 102.498C1258.8 104.508 1259.42 106.715 1260.08 109.077C1262.28 116.89 1264.95 126.394 1267.34 136.026C1270.46 148.606 1273.05 161.18 1273.47 170.309C1273.69 174.936 1273.33 178.308 1272.47 180.318C1272.06 181.278 1271.61 181.744 1271.24 181.969C1270.9 182.176 1270.36 182.339 1269.4 182.178C1267.31 181.823 1263.95 180.023 1259 175.657C1254.2 171.428 1248.2 165.057 1240.79 156.063C1235.22 138.728 1228.61 128.694 1221.05 123.13C1213.36 117.469 1205.08 116.73 1197.05 117.02C1194.68 117.105 1192.21 117.289 1189.78 117.47C1188.19 117.588 1186.63 117.704 1185.13 117.791C1181.21 118.018 1177.39 118.07 1173.65 117.572C1166.3 116.594 1159.06 113.475 1152.09 104.818L1148.1 99.8582L1147.65 106.209C1146.31 125.02 1144.59 138.857 1142.58 148.662C1141.57 153.565 1140.5 157.407 1139.39 160.333C1138.26 163.286 1137.15 165.163 1136.15 166.262C1135.19 167.316 1134.45 167.527 1133.92 167.523C1133.29 167.519 1132.35 167.212 1131.07 166.172C1128.45 164.055 1125.45 159.786 1122.16 153.838C1117.28 145.006 1112.2 133.282 1107.09 121.505C1105.37 117.546 1103.65 113.581 1101.94 109.717C1098.55 102.095 1095.19 94.8812 1091.93 89.0319C1088.73 83.2912 1085.44 78.4742 1082.07 76.0329C1079.82 74.3916 1077.07 74.5136 1074.97 75.2759C1067.61 77.9452 1060.55 84.0864 1054.06 90.6106C1051.3 93.3921 1048.57 96.3091 1045.94 99.1315C1045.46 99.6493 1044.98 100.164 1044.5 100.674C1041.4 103.984 1038.44 107.101 1035.6 109.756C1032.75 112.421 1030.12 114.524 1027.71 115.865C1025.28 117.21 1023.32 117.658 1021.68 117.396C1020.11 117.144 1018.38 116.164 1016.56 113.637C1014.71 111.072 1012.89 107.067 1011.2 101.144L1010.68 99.3311H1008.79C999.112 99.3311 989.159 104.392 979.903 111.17C970.586 117.992 961.611 126.83 953.849 134.924C951.374 137.506 949.037 139.995 946.853 142.321C942.099 147.384 938.072 151.673 934.921 154.464C933.791 155.465 932.847 156.206 932.082 156.696C931.92 156.8 931.772 156.888 931.639 156.963C931.626 156.787 931.618 156.578 931.618 156.331C931.618 149.83 934.278 137.058 938.607 121.353C942.904 105.764 948.755 87.5937 954.952 70.4693C961.154 53.3321 967.678 37.3133 973.315 26.0007C976.145 20.3212 978.69 15.9528 980.802 13.23C981.873 11.8484 982.705 11.0603 983.274 10.6982C983.339 10.6566 983.394 10.6247 983.438 10.6003L983.716 10.757H984.373C999.05 10.757 1020.81 10.1633 1045.75 9.48309C1064.64 8.96766 1085.35 8.40257 1106.19 8.00847C1154.64 7.09172 1203.73 7.09984 1232.71 10.7375C1236.98 11.2734 1239.41 13.1206 1240.95 15.5843C1242.59 18.2012 1243.36 21.7189 1243.75 25.74C1243.94 27.725 1244.04 29.7541 1244.13 31.7838C1244.13 31.9539 1244.14 32.1242 1244.15 32.2946C1244.23 34.1313 1244.3 35.977 1244.45 37.6934C1244.62 39.564 1244.87 41.4057 1245.35 43.0402C1245.83 44.6659 1246.59 46.28 1247.88 47.5035L1248.05 47.6571L1248.23 47.7795C1255.42 52.4733 1258.16 62.5511 1258.85 73.8026C1259.18 79.3079 1259.02 84.8529 1258.76 89.7587C1258.68 91.3419 1258.58 92.8809 1258.49 94.3355C1258.31 97.2975 1258.15 99.9095 1258.15 101.831ZM983.604 10.5262C983.604 10.5269 983.596 10.5296 983.582 10.5324C983.597 10.527 983.604 10.5256 983.604 10.5262Z" fill="#C26161" stroke="black" stroke-width="5"/>
<path d="M691.385 797.65L622.435 1018.85H545.435L479.985 797.65H542.635C546.368 809.317 550.335 822.617 554.535 837.55C558.735 852.483 562.818 867.767 566.785 883.4C570.985 898.8 574.601 913.267 577.635 926.8C580.901 940.1 583.351 951.183 584.985 960.05H586.385C588.018 951.183 590.351 940.1 593.385 926.8C596.651 913.267 600.268 898.8 604.235 883.4C608.435 868 612.635 852.833 616.835 837.9C621.035 822.967 625.001 809.55 628.735 797.65H691.385ZM711.315 934.85C711.315 903.583 717.965 881.067 731.265 867.3C744.565 853.533 767.082 846.65 798.815 846.65C820.049 846.65 837.082 849.683 849.915 855.75C862.749 861.817 871.965 871.383 877.565 884.45C883.399 897.283 886.315 914.083 886.315 934.85C886.315 955.383 883.399 972.067 877.565 984.9C871.965 997.733 862.749 1007.18 849.915 1013.25C837.082 1019.08 820.049 1022 798.815 1022C767.082 1022 744.565 1015.23 731.265 1001.7C717.965 987.933 711.315 965.65 711.315 934.85ZM798.815 974.05C812.349 974.05 821.449 971.133 826.115 965.3C831.015 959.233 833.465 948.733 833.465 933.8C833.465 919.567 831.015 909.417 826.115 903.35C821.449 897.05 812.349 893.9 798.815 893.9C785.749 893.9 776.649 897.05 771.515 903.35C766.615 909.417 764.165 919.567 764.165 933.8C764.165 948.733 766.615 959.233 771.515 965.3C776.649 971.133 785.749 974.05 798.815 974.05ZM971.997 1018.85H915.997V783.3H971.997V1018.85ZM1146.74 969.5V1015C1140.91 1017.33 1132.28 1019.08 1120.84 1020.25C1109.41 1021.42 1097.28 1022 1084.44 1022C1066.01 1022 1050.61 1019.43 1038.24 1014.3C1026.11 1009.17 1017.01 1000.3 1010.94 987.7C1005.11 975.1 1002.08 957.6 1001.84 935.2C1001.84 912.1 1004.99 894.133 1011.29 881.3C1017.83 868.467 1027.28 859.483 1039.64 854.35C1052.01 849.217 1066.83 846.65 1084.09 846.65C1094.36 846.65 1105.21 847.35 1116.64 848.75C1128.08 850.15 1137.41 852.017 1144.64 854.35L1144.99 901.25L1143.94 901.95C1136.94 900.55 1129.48 899.5 1121.54 898.8C1113.61 898.1 1105.79 897.75 1098.09 897.75C1082.46 897.75 1071.61 900.667 1065.54 906.5C1059.48 912.333 1056.44 922.133 1056.44 935.9C1056.44 946.4 1057.73 954.217 1060.29 959.35C1062.86 964.483 1067.18 967.867 1073.24 969.5C1079.31 971.133 1087.59 971.95 1098.09 971.95C1106.26 971.95 1114.08 971.6 1121.54 970.9C1129.01 970.2 1136.94 969.383 1145.34 968.45L1146.74 969.5ZM1242.91 846.65C1265.31 846.65 1283.39 848.983 1297.16 853.65C1310.92 858.317 1320.96 866.95 1327.26 879.55C1333.79 891.917 1337.06 909.883 1337.06 933.45V1018.85H1286.31L1284.56 1002.75H1283.51C1279.07 1008.58 1272.19 1013.25 1262.86 1016.75C1253.52 1020.25 1241.39 1022 1226.46 1022C1186.09 1022 1165.91 1003.1 1165.91 965.3C1165.91 949.2 1171.16 936.6 1181.66 927.5C1192.39 918.167 1209.19 913.5 1232.06 913.5H1283.86C1282.22 903.7 1278.02 897.167 1271.26 893.9C1264.49 890.4 1252.94 888.65 1236.61 888.65C1226.34 888.65 1216.19 889.467 1206.16 891.1C1196.36 892.5 1187.72 894.133 1180.26 896L1179.21 895.3L1179.56 854.7C1184.22 853.3 1190.17 852.017 1197.41 850.85C1204.64 849.45 1212.22 848.4 1220.16 847.7C1228.32 847 1235.91 846.65 1242.91 846.65ZM1240.81 980.7C1255.27 980.7 1266.12 978.95 1273.36 975.45C1280.59 971.717 1284.32 965.883 1284.56 957.95V949.2H1245.01C1234.74 949.2 1227.51 950.717 1223.31 953.75C1219.34 956.55 1217.36 960.4 1217.36 965.3C1217.36 971.133 1219.46 975.217 1223.66 977.55C1227.86 979.65 1233.57 980.7 1240.81 980.7ZM1429.66 1018.85H1373.66V848.4H1426.86L1429.66 879.55H1430.71C1433.98 869.05 1439.81 861 1448.21 855.4C1456.61 849.567 1468.28 846.65 1483.21 846.65C1503.51 846.65 1518.45 852.367 1528.01 863.8C1537.81 875.233 1542.71 895.067 1542.71 923.3V1018.85H1486.71L1486.36 934.15C1486.36 921.083 1484.38 911.75 1480.41 906.15C1476.45 900.55 1468.98 897.75 1458.01 897.75C1447.75 897.75 1440.51 900.317 1436.31 905.45C1432.11 910.35 1429.9 918.867 1429.66 931V1018.85ZM1568.88 934.85C1568.88 903.583 1575.53 881.067 1588.83 867.3C1602.13 853.533 1624.65 846.65 1656.38 846.65C1677.62 846.65 1694.65 849.683 1707.48 855.75C1720.32 861.817 1729.53 871.383 1735.13 884.45C1740.97 897.283 1743.88 914.083 1743.88 934.85C1743.88 955.383 1740.97 972.067 1735.13 984.9C1729.53 997.733 1720.32 1007.18 1707.48 1013.25C1694.65 1019.08 1677.62 1022 1656.38 1022C1624.65 1022 1602.13 1015.23 1588.83 1001.7C1575.53 987.933 1568.88 965.65 1568.88 934.85ZM1656.38 974.05C1669.92 974.05 1679.02 971.133 1683.68 965.3C1688.58 959.233 1691.03 948.733 1691.03 933.8C1691.03 919.567 1688.58 909.417 1683.68 903.35C1679.02 897.05 1669.92 893.9 1656.38 893.9C1643.32 893.9 1634.22 897.05 1629.08 903.35C1624.18 909.417 1621.73 919.567 1621.73 933.8C1621.73 948.733 1624.18 959.233 1629.08 965.3C1634.22 971.133 1643.32 974.05 1656.38 974.05Z" fill="#330C0C"/>
<path d="M589.088 1411.52L521.362 1425.73L505.28 1321.76C503.527 1310.43 505.403 1300.79 510.908 1292.83C516.414 1284.87 524.778 1279.72 536 1277.36C542.264 1276.05 548.327 1275.19 554.191 1274.77C560.316 1274.3 564.875 1274.16 567.869 1274.35L589.088 1411.52ZM559.127 1432.09L550.688 1377.54L668.523 1352.82C670.798 1355.33 673.086 1358.8 675.385 1363.21C677.644 1367.36 679.202 1372.21 680.058 1377.74C681.566 1387.49 680.449 1395.07 676.705 1400.48C673.222 1405.84 667.827 1409.28 660.52 1410.82L559.127 1432.09ZM544.561 1332.7L536 1277.36L666.362 1250.01C668.637 1252.53 670.794 1256.02 672.833 1260.49C675.133 1264.91 676.711 1269.88 677.567 1275.42C679.075 1285.17 677.978 1292.88 674.275 1298.55C670.792 1303.91 665.397 1307.35 658.09 1308.89L544.561 1332.7ZM518.733 1408.73L587.241 1394.36L605.097 1509.78C602.349 1511.18 598.034 1512.9 592.154 1514.95C586.274 1517 580.202 1518.68 573.938 1519.99C560.367 1522.84 550.474 1522.47 544.259 1518.87C538.004 1515.02 533.939 1507.03 532.064 1494.9L518.733 1408.73Z" fill="#F5E6FF"/>
<path d="M840.345 1391.97L907.069 1405.08L880.501 1577.45C877.501 1577.67 873.192 1577.64 867.575 1577.35C861.958 1577.06 856.01 1576.3 849.73 1575.07C838.479 1572.86 830.09 1567.82 824.564 1559.94C819.038 1552.07 817.148 1542.46 818.895 1531.13L840.345 1391.97ZM889.946 1516.17L823.222 1503.06L844.671 1363.91C846.418 1352.57 851.07 1344.26 858.628 1338.95C866.185 1333.65 875.589 1332.1 886.841 1334.31C893.121 1335.55 898.947 1337.1 904.32 1338.97C909.693 1340.84 913.758 1342.45 916.515 1343.81L889.946 1516.17ZM864.538 1479L872.825 1425.24L991.359 1448.53C992.744 1451.79 993.745 1455.78 994.363 1460.52C995.242 1465.31 995.255 1470.47 994.402 1476.01C992.899 1485.76 989.709 1492.46 984.832 1496.12C979.995 1499.51 973.914 1500.49 966.587 1499.05L864.538 1479ZM849.73 1575.07L858.139 1520.51L989.233 1546.27C990.618 1549.53 991.599 1553.66 992.176 1558.66C993.015 1563.71 993.008 1569 992.154 1574.54C990.651 1584.29 987.461 1591 982.584 1594.65C977.747 1598.05 971.666 1599.03 964.339 1597.59L849.73 1575.07ZM878.492 1388.47L886.841 1334.31L1016.36 1359.76C1017.75 1363.02 1018.75 1367.02 1019.37 1371.75C1020.25 1376.54 1020.26 1381.7 1019.41 1387.24C1017.9 1396.99 1014.71 1403.7 1009.84 1407.35C1004.96 1411.01 998.858 1412.12 991.531 1410.68L878.492 1388.47Z" fill="#F5E6FF"/>
<path d="M1232.38 1532.39C1244.24 1526.92 1251.89 1521.06 1255.32 1514.8C1258.75 1508.54 1259.59 1502.9 1257.82 1497.87C1256.05 1492.83 1252.75 1489.83 1247.9 1488.84C1242.97 1487.61 1236.55 1487.35 1228.64 1488.07L1211.53 1489.82C1195.71 1491.26 1181.38 1491.72 1168.54 1491.21C1155.85 1490.33 1144.89 1486.75 1135.66 1480.49C1126.43 1474.22 1119.25 1463.79 1114.12 1449.19C1106.62 1427.8 1108.48 1407.07 1119.72 1386.98C1131.2 1366.79 1151.23 1350.1 1179.81 1336.94C1193.86 1330.46 1206.82 1326.1 1218.69 1323.85C1230.56 1321.59 1240.66 1321.91 1248.99 1324.8C1257.23 1327.43 1262.89 1333.15 1265.99 1341.96C1268.19 1348.25 1268.68 1354.45 1267.45 1360.57C1266.23 1366.69 1264.13 1372.34 1261.16 1377.51C1254.59 1376.44 1246.39 1376.71 1236.54 1378.32C1226.61 1379.68 1216.32 1382.82 1205.66 1387.73C1194.76 1392.75 1187.34 1398.07 1183.4 1403.68C1179.38 1409.04 1178.2 1414.12 1179.88 1418.9C1181.21 1422.67 1183.88 1425.09 1187.92 1426.16C1192.1 1426.86 1197.58 1426.82 1204.34 1426.05L1225.84 1423.59C1251.5 1420.54 1272.51 1422.26 1288.85 1428.76C1305.11 1435.01 1316.78 1448.2 1323.84 1468.32C1331.35 1489.71 1329.25 1510.99 1317.55 1532.17C1306 1552.98 1284.61 1570.58 1253.37 1584.98C1238.59 1591.79 1224.7 1596.29 1211.68 1598.48C1198.67 1600.68 1187.5 1600.13 1178.18 1596.82C1168.86 1593.51 1162.56 1587.21 1159.3 1577.9C1156.74 1570.6 1156.63 1563.49 1158.98 1556.56C1161.24 1549.37 1164.31 1543.28 1168.18 1538.29C1176.91 1540.7 1186.82 1541.68 1197.92 1541.25C1209.27 1540.7 1220.75 1537.74 1232.38 1532.39Z" fill="#F5E6FF"/>
<path d="M1546.96 1461.36L1558.8 1406.63L1686.88 1443.21C1688.06 1446.59 1688.78 1450.81 1689.04 1455.87C1689.57 1461 1689.23 1466.3 1688.05 1471.77C1685.96 1481.42 1682.23 1487.96 1676.86 1491.41C1671.8 1494.67 1665.67 1495.27 1658.5 1493.22L1546.96 1461.36ZM1629.57 1426.84L1617.73 1481.58L1489.65 1445C1488.47 1441.62 1487.62 1437.36 1487.1 1432.23C1486.83 1427.17 1487.29 1421.91 1488.48 1416.44C1490.62 1406.53 1494.22 1399.95 1499.29 1396.69C1504.6 1393.51 1510.85 1392.94 1518.03 1394.99L1629.57 1426.84ZM1550.01 1451.03L1617.32 1470.25L1575.68 1662.6C1572.69 1662.57 1568.16 1662.11 1562.1 1661.21C1556.03 1660.31 1549.92 1658.98 1543.77 1657.22C1530.43 1653.41 1521.58 1648.39 1517.21 1642.16C1512.9 1635.67 1512.04 1626.43 1514.64 1614.44L1550.01 1451.03Z" fill="#F5E6FF"/>
</g>
<defs>
<clipPath id="clip0_49_2">
<rect width="2221" height="2052" fill="white"/>
</clipPath>
</defs>
</svg>
