<svg width="2000" height="2000" viewBox="0 0 2000 2000" fill="none" xmlns="http://www.w3.org/2000/svg">
<g clip-path="url(#clip0_65_43)">
<path d="M1763.98 1353.01C1739.64 1367.05 1728.19 1397.2 1736.55 1424.02C1844.79 1771.08 1332.25 1956.81 1006 1753.5C791.5 2094 277.5 1981.5 277.5 1532.5C-141.5 1318 50 578.5 393.001 682.5C184 274 672 74.5001 1006 315.5C1496.5 33.4999 1607 454 1516.5 617.5C1918.27 558.388 2120.48 1147.35 1763.98 1353.01Z" fill="#866CB1"/>
<g style="mix-blend-mode:multiply">
<path d="M1523.92 815.025C1723.4 836.649 1927 953.727 1666.72 1212.59C1649.1 1230.11 1647.17 1257.5 1660.64 1278.62C1827.07 1539.61 1555.52 1772.14 1194.38 1647.2C1084.74 2085 647.03 1885.28 651.641 1609.58C266.977 1828.25 121.288 1502.7 312.34 1273.77C116.5 1191 158.404 875.562 352.428 860.466C117.404 257.062 1027.14 347.985 1031.93 667.906C1131.39 251.722 1722.92 372.115 1523.92 815.025Z" fill="#180B2D" fill-opacity="0.4"/>
</g>
<path d="M1497.87 788.655C1767.63 757.789 1907.25 1055.1 1671.56 1172.56C1640.41 1188.09 1627.15 1226.87 1643.27 1257.14C1770.79 1496.59 1516.82 1700.76 1182.64 1585.1C1077.79 2004.11 658.862 1812.9 663.23 1549.02C295.14 1758.25 155.663 1446.64 338.463 1227.56C107.729 1134.61 123.23 808.704 376.76 831.98C264.23 542.204 534.23 259.704 938.729 542.204C1142.73 301.293 1659.23 363.204 1497.87 788.655Z" fill="#866CB1"/>
<rect width="290.42" height="347.404" rx="10" transform="matrix(0.378181 -0.925731 0.886962 0.461843 245.289 811.024)" fill="#008B71"/>
<g filter="url(#filter0_d_65_43)">
<rect width="309.522" height="377.908" rx="10" transform="matrix(0.503516 -0.863986 0.80276 0.596302 282.22 589.151)" fill="#008B71"/>
</g>
<g filter="url(#filter1_d_65_43)">
<rect width="314.86" height="482.11" rx="10" transform="matrix(0.959528 -0.281613 0.22439 0.974499 464.809 274.441)" fill="#008B71"/>
</g>
<rect width="288.165" height="350.535" rx="10" transform="matrix(-0.450003 -0.893027 -0.841399 0.540414 1658.11 758.705)" fill="#008B71"/>
<g filter="url(#filter2_d_65_43)">
<rect width="306.633" height="381.752" rx="10" transform="matrix(-0.57208 -0.820198 -0.74736 0.664419 1604.61 541.179)" fill="#008B71"/>
</g>
<g filter="url(#filter3_d_65_43)">
<rect width="313.372" height="483.946" rx="10" transform="matrix(-0.981898 -0.189413 -0.149641 0.98874 1398.99 245.129)" fill="#008B71"/>
</g>
<g filter="url(#filter4_dd_65_43)">
<path d="M847.287 36.0535H1107.28L1184.64 372.92L1279.15 639.607L1444.34 906.293H499.466L654.182 603.737L742.011 372.92L847.287 36.0535Z" fill="#A4A3A3"/>
</g>
<g filter="url(#filter5_d_65_43)">
<path d="M1625.96 1410.35L276.729 1190.03L364.97 1090.51L320.973 998.704L317.219 865.203L1666.45 1085.52L1566.78 1183.18L1622.13 1274.23L1625.96 1410.35Z" fill="#986932"/>
</g>
<g filter="url(#filter6_d_65_43)">
<path d="M172.162 726.891H1774.58L1686.31 868.422L1774.58 913.454V1138.62H172.162L274.01 997.086L172.162 868.422V726.891Z" fill="#986932"/>
</g>
<path d="M1129.38 125.035C1138.92 159.489 1168.06 254.393 1107.28 180.485C1085.18 110.913 1048.43 166.32 1018.87 129.589C1008.18 280.451 972.292 117.934 949.334 101.259C947.956 100.258 946.153 100.249 944.551 100.83C917.385 110.678 891.359 173.461 877.523 125.035C842.051 125.035 797.847 199.731 797.847 179.534C797.847 151.972 842.051 25.2221 853.102 31.4604C904.659 31.4604 1043.37 24.1321 1101.75 31.4604C1121.7 33.9638 1111.52 62.4572 1118.33 68.89C1134.91 79.7215 1129.38 113.912 1129.38 125.035Z" fill="#C26161"/>
<path d="M560.114 820.853L491.164 1042.05H414.164L348.714 820.853H411.364C415.097 832.52 419.064 845.82 423.264 860.753C427.464 875.687 431.547 890.97 435.514 906.603C439.714 922.003 443.331 936.47 446.364 950.003C449.631 963.303 452.081 974.387 453.714 983.253H455.114C456.747 974.387 459.081 963.303 462.114 950.003C465.381 936.47 468.997 922.003 472.964 906.603C477.164 891.203 481.364 876.037 485.564 861.103C489.764 846.17 493.731 832.753 497.464 820.853H560.114ZM580.045 958.053C580.045 926.787 586.695 904.27 599.995 890.503C613.295 876.737 635.812 869.853 667.545 869.853C688.778 869.853 705.812 872.887 718.645 878.953C731.478 885.02 740.695 894.587 746.295 907.653C752.128 920.487 755.045 937.287 755.045 958.053C755.045 978.587 752.128 995.27 746.295 1008.1C740.695 1020.94 731.478 1030.39 718.645 1036.45C705.812 1042.29 688.778 1045.2 667.545 1045.2C635.812 1045.2 613.295 1038.44 599.995 1024.9C586.695 1011.14 580.045 988.853 580.045 958.053ZM667.545 997.253C681.078 997.253 690.178 994.337 694.845 988.503C699.745 982.437 702.195 971.937 702.195 957.003C702.195 942.77 699.745 932.62 694.845 926.553C690.178 920.253 681.078 917.103 667.545 917.103C654.478 917.103 645.378 920.253 640.245 926.553C635.345 932.62 632.895 942.77 632.895 957.003C632.895 971.937 635.345 982.437 640.245 988.503C645.378 994.337 654.478 997.253 667.545 997.253ZM840.727 1042.05H784.727V806.503H840.727V1042.05ZM1015.47 992.703V1038.2C1009.64 1040.54 1001.01 1042.29 989.572 1043.45C978.139 1044.62 966.006 1045.2 953.172 1045.2C934.739 1045.2 919.339 1042.64 906.972 1037.5C894.839 1032.37 885.739 1023.5 879.672 1010.9C873.839 998.303 870.806 980.803 870.572 958.403C870.572 935.303 873.722 917.337 880.022 904.503C886.556 891.67 896.006 882.687 908.372 877.553C920.739 872.42 935.556 869.853 952.822 869.853C963.089 869.853 973.939 870.553 985.372 871.953C996.806 873.353 1006.14 875.22 1013.37 877.553L1013.72 924.453L1012.67 925.153C1005.67 923.753 998.206 922.703 990.272 922.003C982.339 921.303 974.522 920.953 966.822 920.953C951.189 920.953 940.339 923.87 934.272 929.703C928.206 935.537 925.172 945.337 925.172 959.103C925.172 969.603 926.456 977.42 929.022 982.553C931.589 987.687 935.906 991.07 941.972 992.703C948.039 994.337 956.322 995.153 966.822 995.153C974.989 995.153 982.806 994.803 990.272 994.103C997.739 993.403 1005.67 992.587 1014.07 991.653L1015.47 992.703ZM1111.63 869.853C1134.03 869.853 1152.12 872.187 1165.88 876.853C1179.65 881.52 1189.68 890.153 1195.98 902.753C1202.52 915.12 1205.78 933.087 1205.78 956.653V1042.05H1155.03L1153.28 1025.95H1152.23C1147.8 1031.79 1140.92 1036.45 1131.58 1039.95C1122.25 1043.45 1110.12 1045.2 1095.18 1045.2C1054.82 1045.2 1034.63 1026.3 1034.63 988.503C1034.63 972.403 1039.88 959.803 1050.38 950.703C1061.12 941.37 1077.92 936.703 1100.78 936.703H1152.58C1150.95 926.903 1146.75 920.37 1139.98 917.103C1133.22 913.603 1121.67 911.853 1105.33 911.853C1095.07 911.853 1084.92 912.67 1074.88 914.303C1065.08 915.703 1056.45 917.337 1048.98 919.203L1047.93 918.503L1048.28 877.903C1052.95 876.503 1058.9 875.22 1066.13 874.053C1073.37 872.653 1080.95 871.603 1088.88 870.903C1097.05 870.203 1104.63 869.853 1111.63 869.853ZM1109.53 1003.9C1124 1003.9 1134.85 1002.15 1142.08 998.653C1149.32 994.92 1153.05 989.087 1153.28 981.153V972.403H1113.73C1103.47 972.403 1096.23 973.92 1092.03 976.953C1088.07 979.753 1086.08 983.603 1086.08 988.503C1086.08 994.337 1088.18 998.42 1092.38 1000.75C1096.58 1002.85 1102.3 1003.9 1109.53 1003.9ZM1298.39 1042.05H1242.39V871.603H1295.59L1298.39 902.753H1299.44C1302.71 892.253 1308.54 884.203 1316.94 878.603C1325.34 872.77 1337.01 869.853 1351.94 869.853C1372.24 869.853 1387.18 875.57 1396.74 887.003C1406.54 898.437 1411.44 918.27 1411.44 946.503V1042.05H1355.44L1355.09 957.353C1355.09 944.287 1353.11 934.953 1349.14 929.353C1345.18 923.753 1337.71 920.953 1326.74 920.953C1316.48 920.953 1309.24 923.52 1305.04 928.653C1300.84 933.553 1298.63 942.07 1298.39 954.203V1042.05ZM1437.61 958.053C1437.61 926.787 1444.26 904.27 1457.56 890.503C1470.86 876.737 1493.38 869.853 1525.11 869.853C1546.35 869.853 1563.38 872.887 1576.21 878.953C1589.05 885.02 1598.26 894.587 1603.86 907.653C1609.7 920.487 1612.61 937.287 1612.61 958.053C1612.61 978.587 1609.7 995.27 1603.86 1008.1C1598.26 1020.94 1589.05 1030.39 1576.21 1036.45C1563.38 1042.29 1546.35 1045.2 1525.11 1045.2C1493.38 1045.2 1470.86 1038.44 1457.56 1024.9C1444.26 1011.14 1437.61 988.853 1437.61 958.053ZM1525.11 997.253C1538.65 997.253 1547.75 994.337 1552.41 988.503C1557.31 982.437 1559.76 971.937 1559.76 957.003C1559.76 942.77 1557.31 932.62 1552.41 926.553C1547.75 920.253 1538.65 917.103 1525.11 917.103C1512.05 917.103 1502.95 920.253 1497.81 926.553C1492.91 932.62 1490.46 942.77 1490.46 957.003C1490.46 971.937 1492.91 982.437 1497.81 988.503C1502.95 994.337 1512.05 997.253 1525.11 997.253Z" fill="#330C0C"/>
<path d="M434.817 1428.72L367.092 1442.93L351.009 1338.97C349.256 1327.64 351.132 1317.99 356.638 1310.03C362.143 1302.08 370.507 1296.92 381.729 1294.57C387.993 1293.25 394.057 1292.39 399.921 1291.97C406.046 1291.51 410.605 1291.37 413.598 1291.55L434.817 1428.72ZM404.856 1449.29L396.418 1394.74L514.252 1370.02C516.528 1372.54 518.815 1376 521.115 1380.42C523.374 1384.57 524.931 1389.41 525.788 1394.94C527.296 1404.7 526.178 1412.28 522.435 1417.69C518.952 1423.04 513.557 1426.49 506.249 1428.02L404.856 1449.29ZM390.291 1349.91L381.729 1294.57L512.091 1267.22C514.367 1269.73 516.524 1273.23 518.563 1277.7C520.862 1282.11 522.44 1287.08 523.296 1292.62C524.805 1302.37 523.707 1310.08 520.004 1315.76C516.522 1321.11 511.127 1324.56 503.819 1326.09L390.291 1349.91ZM364.462 1425.93L432.971 1411.56L450.827 1526.99C448.078 1528.38 443.764 1530.1 437.884 1532.15C432.003 1534.2 425.931 1535.88 419.668 1537.2C406.096 1540.04 396.203 1539.67 389.989 1536.08C383.734 1532.22 379.668 1524.23 377.793 1512.11L364.462 1425.93Z" fill="#F5E6FF"/>
<path d="M676.454 1451.8L743.205 1464.77L716.983 1637.19C713.983 1637.42 709.675 1637.4 704.057 1637.12C698.44 1636.84 692.49 1636.09 686.207 1634.87C674.952 1632.68 666.553 1627.66 661.011 1619.8C655.469 1611.93 653.56 1602.33 655.284 1591L676.454 1451.8ZM726.305 1575.9L659.554 1562.92L680.724 1423.72C682.448 1412.38 687.083 1404.06 694.63 1398.74C702.176 1393.42 711.578 1391.85 722.834 1394.04C729.116 1395.26 734.946 1396.8 740.322 1398.66C745.699 1400.52 749.767 1402.13 752.526 1403.48L726.305 1575.9ZM700.822 1538.78L709.001 1485L827.582 1508.05C828.973 1511.3 829.982 1515.3 830.61 1520.03C831.499 1524.82 831.522 1529.98 830.68 1535.52C829.197 1545.27 826.02 1551.99 821.15 1555.65C816.32 1559.06 810.241 1560.05 802.911 1558.62L700.822 1538.78ZM686.207 1634.87L694.507 1580.3L825.652 1605.79C827.044 1609.05 828.033 1613.18 828.62 1618.18C829.469 1623.23 829.472 1628.52 828.631 1634.06C827.147 1643.81 823.97 1650.52 819.1 1654.19C814.271 1657.59 808.191 1658.58 800.862 1657.16L686.207 1634.87ZM714.594 1448.22L722.834 1394.04L852.408 1419.23C853.8 1422.48 854.809 1426.48 855.436 1431.22C856.325 1436 856.349 1441.17 855.507 1446.7C854.023 1456.46 850.847 1463.17 845.977 1466.84C841.107 1470.5 835.007 1471.62 827.678 1470.2L714.594 1448.22Z" fill="url(#paint0_linear_65_43)"/>
<path d="M1068.42 1559.66C1080.29 1554.19 1087.94 1548.33 1091.37 1542.07C1094.8 1535.82 1095.63 1530.17 1093.87 1525.14C1092.1 1520.11 1088.79 1517.1 1083.95 1516.12C1079.01 1514.88 1072.59 1514.63 1064.68 1515.35L1047.57 1517.09C1031.76 1518.53 1017.43 1518.99 1004.59 1518.48C991.899 1517.6 980.938 1514.03 971.704 1507.76C962.47 1501.49 955.292 1491.06 950.17 1476.47C942.663 1455.08 944.529 1434.34 955.768 1414.26C967.249 1394.06 987.28 1377.38 1015.86 1364.21C1029.91 1357.74 1042.87 1353.38 1054.74 1351.12C1066.61 1348.87 1076.71 1349.18 1085.03 1352.07C1093.27 1354.7 1098.94 1360.43 1102.03 1369.23C1104.24 1375.52 1104.73 1381.73 1103.5 1387.85C1102.27 1393.97 1100.17 1399.61 1097.2 1404.78C1090.64 1403.71 1082.43 1403.98 1072.59 1405.6C1062.66 1406.96 1052.36 1410.09 1041.7 1415C1030.81 1420.02 1023.39 1425.34 1019.45 1430.96C1015.42 1436.32 1014.25 1441.39 1015.93 1446.17C1017.25 1449.94 1019.93 1452.36 1023.96 1453.43C1028.15 1454.13 1033.62 1454.1 1040.38 1453.32L1061.89 1450.86C1087.55 1447.81 1108.55 1449.54 1124.9 1456.03C1141.16 1462.28 1152.82 1475.47 1159.89 1495.6C1167.39 1516.99 1165.3 1538.27 1153.6 1559.44C1142.05 1580.25 1120.65 1597.86 1089.41 1612.25C1074.64 1619.06 1060.74 1623.56 1047.73 1625.76C1034.71 1627.95 1023.54 1627.4 1014.22 1624.09C1004.9 1620.79 998.609 1614.48 995.341 1605.17C992.78 1597.87 992.675 1590.76 995.026 1583.83C997.289 1576.65 1000.36 1570.56 1004.23 1565.56C1012.95 1567.97 1022.87 1568.96 1033.97 1568.52C1045.31 1567.97 1056.79 1565.02 1068.42 1559.66Z" fill="#F5E6FF"/>
<path d="M1321.16 1478.17L1333 1423.44L1461.08 1460.02C1462.26 1463.4 1462.98 1467.61 1463.24 1472.67C1463.77 1477.8 1463.44 1483.1 1462.25 1488.58C1460.16 1498.22 1456.43 1504.77 1451.06 1508.21C1446 1511.47 1439.88 1512.08 1432.7 1510.02L1321.16 1478.17ZM1403.77 1443.65L1391.93 1498.38L1263.85 1461.8C1262.67 1458.42 1261.83 1454.17 1261.3 1449.03C1261.04 1443.98 1261.5 1438.71 1262.68 1433.24C1264.82 1423.33 1268.43 1416.75 1273.49 1413.49C1278.81 1410.31 1285.06 1409.74 1292.23 1411.79L1403.77 1443.65ZM1324.21 1467.83L1391.52 1487.06L1349.88 1679.4C1346.89 1679.38 1342.37 1678.91 1336.3 1678.01C1330.23 1677.11 1324.12 1675.78 1317.97 1674.02C1304.64 1670.21 1295.78 1665.2 1291.41 1658.97C1287.1 1652.48 1286.24 1643.24 1288.84 1631.25L1324.21 1467.83Z" fill="url(#paint1_linear_65_43)"/>
</g>
<defs>
<filter id="filter0_d_65_43" x="275.805" y="325.833" width="462.048" height="514.562" filterUnits="userSpaceOnUse" color-interpolation-filters="sRGB">
<feFlood flood-opacity="0" result="BackgroundImageFix"/>
<feColorMatrix in="SourceAlpha" type="matrix" values="0 0 0 0 0 0 0 0 0 0 0 0 0 0 0 0 0 0 127 0" result="hardAlpha"/>
<feOffset dx="-10" dy="30"/>
<feComposite in2="hardAlpha" operator="out"/>
<feColorMatrix type="matrix" values="0 0 0 0 0 0 0 0 0 0 0 0 0 0 0 0 0 0 0.25 0"/>
<feBlend mode="normal" in2="BackgroundImageFix" result="effect1_dropShadow_65_43"/>
<feBlend mode="normal" in="SourceGraphic" in2="effect1_dropShadow_65_43" result="shape"/>
</filter>
<filter id="filter1_d_65_43" x="436.792" y="188.187" width="436.332" height="583.655" filterUnits="userSpaceOnUse" color-interpolation-filters="sRGB">
<feFlood flood-opacity="0" result="BackgroundImageFix"/>
<feColorMatrix in="SourceAlpha" type="matrix" values="0 0 0 0 0 0 0 0 0 0 0 0 0 0 0 0 0 0 127 0" result="hardAlpha"/>
<feOffset dx="-30" dy="30"/>
<feComposite in2="hardAlpha" operator="out"/>
<feColorMatrix type="matrix" values="0 0 0 0 0 0 0 0 0 0 0 0 0 0 0 0 0 0 0.25 0"/>
<feBlend mode="normal" in2="BackgroundImageFix" result="effect1_dropShadow_65_43"/>
<feBlend mode="normal" in="SourceGraphic" in2="effect1_dropShadow_65_43" result="shape"/>
</filter>
<filter id="filter2_d_65_43" x="1147.67" y="293.97" width="463.161" height="526.562" filterUnits="userSpaceOnUse" color-interpolation-filters="sRGB">
<feFlood flood-opacity="0" result="BackgroundImageFix"/>
<feColorMatrix in="SourceAlpha" type="matrix" values="0 0 0 0 0 0 0 0 0 0 0 0 0 0 0 0 0 0 127 0" result="hardAlpha"/>
<feOffset dx="10" dy="30"/>
<feComposite in2="hardAlpha" operator="out"/>
<feColorMatrix type="matrix" values="0 0 0 0 0 0 0 0 0 0 0 0 0 0 0 0 0 0 0.25 0"/>
<feBlend mode="normal" in2="BackgroundImageFix" result="effect1_dropShadow_65_43"/>
<feBlend mode="normal" in="SourceGraphic" in2="effect1_dropShadow_65_43" result="shape"/>
</filter>
<filter id="filter3_d_65_43" x="1020.25" y="187.485" width="407.354" height="564.428" filterUnits="userSpaceOnUse" color-interpolation-filters="sRGB">
<feFlood flood-opacity="0" result="BackgroundImageFix"/>
<feColorMatrix in="SourceAlpha" type="matrix" values="0 0 0 0 0 0 0 0 0 0 0 0 0 0 0 0 0 0 127 0" result="hardAlpha"/>
<feOffset dx="30" dy="30"/>
<feComposite in2="hardAlpha" operator="out"/>
<feColorMatrix type="matrix" values="0 0 0 0 0 0 0 0 0 0 0 0 0 0 0 0 0 0 0.25 0"/>
<feBlend mode="normal" in2="BackgroundImageFix" result="effect1_dropShadow_65_43"/>
<feBlend mode="normal" in="SourceGraphic" in2="effect1_dropShadow_65_43" result="shape"/>
</filter>
<filter id="filter4_dd_65_43" x="469.466" y="36.0535" width="1004.87" height="910.24" filterUnits="userSpaceOnUse" color-interpolation-filters="sRGB">
<feFlood flood-opacity="0" result="BackgroundImageFix"/>
<feColorMatrix in="SourceAlpha" type="matrix" values="0 0 0 0 0 0 0 0 0 0 0 0 0 0 0 0 0 0 127 0" result="hardAlpha"/>
<feOffset dx="30" dy="40"/>
<feComposite in2="hardAlpha" operator="out"/>
<feColorMatrix type="matrix" values="0 0 0 0 0 0 0 0 0 0 0 0 0 0 0 0 0 0 0.25 0"/>
<feBlend mode="normal" in2="BackgroundImageFix" result="effect1_dropShadow_65_43"/>
<feColorMatrix in="SourceAlpha" type="matrix" values="0 0 0 0 0 0 0 0 0 0 0 0 0 0 0 0 0 0 127 0" result="hardAlpha"/>
<feOffset dx="-30" dy="40"/>
<feComposite in2="hardAlpha" operator="out"/>
<feColorMatrix type="matrix" values="0 0 0 0 0 0 0 0 0 0 0 0 0 0 0 0 0 0 0.25 0"/>
<feBlend mode="normal" in2="effect1_dropShadow_65_43" result="effect2_dropShadow_65_43"/>
<feBlend mode="normal" in="SourceGraphic" in2="effect2_dropShadow_65_43" result="shape"/>
</filter>
<filter id="filter5_d_65_43" x="276.729" y="865.203" width="1389.72" height="585.149" filterUnits="userSpaceOnUse" color-interpolation-filters="sRGB">
<feFlood flood-opacity="0" result="BackgroundImageFix"/>
<feColorMatrix in="SourceAlpha" type="matrix" values="0 0 0 0 0 0 0 0 0 0 0 0 0 0 0 0 0 0 127 0" result="hardAlpha"/>
<feOffset dy="40"/>
<feComposite in2="hardAlpha" operator="out"/>
<feColorMatrix type="matrix" values="0 0 0 0 0 0 0 0 0 0 0 0 0 0 0 0 0 0 0.25 0"/>
<feBlend mode="normal" in2="BackgroundImageFix" result="effect1_dropShadow_65_43"/>
<feBlend mode="normal" in="SourceGraphic" in2="effect1_dropShadow_65_43" result="shape"/>
</filter>
<filter id="filter6_d_65_43" x="172.162" y="726.891" width="1602.42" height="451.726" filterUnits="userSpaceOnUse" color-interpolation-filters="sRGB">
<feFlood flood-opacity="0" result="BackgroundImageFix"/>
<feColorMatrix in="SourceAlpha" type="matrix" values="0 0 0 0 0 0 0 0 0 0 0 0 0 0 0 0 0 0 127 0" result="hardAlpha"/>
<feOffset dy="40"/>
<feComposite in2="hardAlpha" operator="out"/>
<feColorMatrix type="matrix" values="0 0 0 0 0 0 0 0 0 0 0 0 0 0 0 0 0 0 0.25 0"/>
<feBlend mode="normal" in2="BackgroundImageFix" result="effect1_dropShadow_65_43"/>
<feBlend mode="normal" in="SourceGraphic" in2="effect1_dropShadow_65_43" result="shape"/>
</filter>
<linearGradient id="paint0_linear_65_43" x1="674.729" y1="1622.2" x2="662.954" y2="1624.29" gradientUnits="userSpaceOnUse">
<stop stop-color="#F5E5FF"/>
<stop stop-color="#BF9CD5"/>
</linearGradient>
<linearGradient id="paint1_linear_65_43" x1="1347.23" y1="1618.7" x2="1341.17" y2="1673.31" gradientUnits="userSpaceOnUse">
<stop stop-color="#F5E6FF"/>
<stop offset="0.0002" stop-color="#BF9CD5"/>
</linearGradient>
<clipPath id="clip0_65_43">
<rect width="2000" height="2000" fill="white"/>
</clipPath>
</defs>
</svg>
