<svg width="988" height="1000" viewBox="0 0 988 1000" fill="none" xmlns="http://www.w3.org/2000/svg">
<path d="M107.5 343.816C107.5 275.6 144.356 212.706 203.869 179.365L408.369 64.797C465.604 32.7315 535.395 32.7314 592.631 64.797L797.131 179.365C856.644 212.706 893.5 275.6 893.5 343.816V638.184C893.5 706.4 856.644 769.293 797.131 802.635L592.631 917.203C535.396 949.268 465.605 949.268 408.369 917.203L203.869 802.635C144.356 769.293 107.5 706.4 107.5 638.184V343.816Z" fill="url(#paint0_linear_107_26)" stroke="white" stroke-width="23"/>
<path d="M681 347C684.667 347 687.833 348.333 690.5 351C693.167 353.667 694.5 356.833 694.5 360.5V683.5C694.5 687.167 693.167 690.333 690.5 693C687.833 695.667 684.667 697 681 697H578C574.333 697 571.167 695.667 568.5 693C565.833 690.333 564.5 687.167 564.5 683.5V577H464.5V683.5C464.5 687.167 463.167 690.333 460.5 693C457.833 695.667 454.667 697 451 697H348C344.333 697 341.167 695.833 338.5 693.5C335.833 690.833 334.5 687.5 334.5 683.5V360.5C334.5 356.833 335.833 353.667 338.5 351C341.167 348.333 344.333 347 348 347H451C454.667 347 457.833 348.333 460.5 351C463.167 353.667 464.5 356.833 464.5 360.5V463H564.5V360.5C564.5 356.833 565.833 353.667 568.5 351C571.167 348.333 574.333 347 578 347H681Z" fill="#B415FF"/>
<path d="M677 342C680.667 342 683.833 343.333 686.5 346C689.167 348.667 690.5 351.833 690.5 355.5V678.5C690.5 682.167 689.167 685.333 686.5 688C683.833 690.667 680.667 692 677 692H574C570.333 692 567.167 690.667 564.5 688C561.833 685.333 560.5 682.167 560.5 678.5V572H460.5V678.5C460.5 682.167 459.167 685.333 456.5 688C453.833 690.667 450.667 692 447 692H344C340.333 692 337.167 690.833 334.5 688.5C331.833 685.833 330.5 682.5 330.5 678.5V355.5C330.5 351.833 331.833 348.667 334.5 346C337.167 343.333 340.333 342 344 342H447C450.667 342 453.833 343.333 456.5 346C459.167 348.667 460.5 351.833 460.5 355.5V458H560.5V355.5C560.5 351.833 561.833 348.667 564.5 346C567.167 343.333 570.333 342 574 342H677Z" fill="#C039FF"/>
<path d="M673 335C676.667 335 679.833 336.333 682.5 339C685.167 341.667 686.5 344.833 686.5 348.5V671.5C686.5 675.167 685.167 678.333 682.5 681C679.833 683.667 676.667 685 673 685H570C566.333 685 563.167 683.667 560.5 681C557.833 678.333 556.5 675.167 556.5 671.5V565H456.5V671.5C456.5 675.167 455.167 678.333 452.5 681C449.833 683.667 446.667 685 443 685H340C336.333 685 333.167 683.833 330.5 681.5C327.833 678.833 326.5 675.5 326.5 671.5V348.5C326.5 344.833 327.833 341.667 330.5 339C333.167 336.333 336.333 335 340 335H443C446.667 335 449.833 336.333 452.5 339C455.167 341.667 456.5 344.833 456.5 348.5V451H556.5V348.5C556.5 344.833 557.833 341.667 560.5 339C563.167 336.333 566.333 335 570 335H673Z" fill="#D06DFF"/>
<path d="M669 328C672.667 328 675.833 329.333 678.5 332C681.167 334.667 682.5 337.833 682.5 341.5V664.5C682.5 668.167 681.167 671.333 678.5 674C675.833 676.667 672.667 678 669 678H566C562.333 678 559.167 676.667 556.5 674C553.833 671.333 552.5 668.167 552.5 664.5V558H452.5V664.5C452.5 668.167 451.167 671.333 448.5 674C445.833 676.667 442.667 678 439 678H336C332.333 678 329.167 676.833 326.5 674.5C323.833 671.833 322.5 668.5 322.5 664.5V341.5C322.5 337.833 323.833 334.667 326.5 332C329.167 329.333 332.333 328 336 328H439C442.667 328 445.833 329.333 448.5 332C451.167 334.667 452.5 337.833 452.5 341.5V444H552.5V341.5C552.5 337.833 553.833 334.667 556.5 332C559.167 329.333 562.333 328 566 328H669Z" fill="#E09FFF"/>
<path d="M665 321C668.667 321 671.833 322.333 674.5 325C677.167 327.667 678.5 330.833 678.5 334.5V657.5C678.5 661.167 677.167 664.333 674.5 667C671.833 669.667 668.667 671 665 671H562C558.333 671 555.167 669.667 552.5 667C549.833 664.333 548.5 661.167 548.5 657.5V551H448.5V657.5C448.5 661.167 447.167 664.333 444.5 667C441.833 669.667 438.667 671 435 671H332C328.333 671 325.167 669.833 322.5 667.5C319.833 664.833 318.5 661.5 318.5 657.5V334.5C318.5 330.833 319.833 327.667 322.5 325C325.167 322.333 328.333 321 332 321H435C438.667 321 441.833 322.333 444.5 325C447.167 327.667 448.5 330.833 448.5 334.5V437H548.5V334.5C548.5 330.833 549.833 327.667 552.5 325C555.167 322.333 558.333 321 562 321H665Z" fill="#EEC9FF"/>
<path d="M661 315C664.667 315 667.833 316.333 670.5 319C673.167 321.667 674.5 324.833 674.5 328.5V651.5C674.5 655.167 673.167 658.333 670.5 661C667.833 663.667 664.667 665 661 665H558C554.333 665 551.167 663.667 548.5 661C545.833 658.333 544.5 655.167 544.5 651.5V545H444.5V651.5C444.5 655.167 443.167 658.333 440.5 661C437.833 663.667 434.667 665 431 665H328C324.333 665 321.167 663.833 318.5 661.5C315.833 658.833 314.5 655.5 314.5 651.5V328.5C314.5 324.833 315.833 321.667 318.5 319C321.167 316.333 324.333 315 328 315H431C434.667 315 437.833 316.333 440.5 319C443.167 321.667 444.5 324.833 444.5 328.5V431H544.5V328.5C544.5 324.833 545.833 321.667 548.5 319C551.167 316.333 554.333 315 558 315H661Z" fill="white"/>
<defs>
<linearGradient id="paint0_linear_107_26" x1="247" y1="52.5" x2="851" y2="928.5" gradientUnits="userSpaceOnUse">
<stop stop-color="#451157"/>
<stop offset="0.12" stop-color="#5C1D73"/>
<stop offset="0.28" stop-color="#4D1162"/>
<stop offset="0.8" stop-color="#2D073A"/>
<stop offset="1" stop-color="#47115A"/>
</linearGradient>
</defs>
</svg>
